<?xml version="1.0" encoding="UTF-8"?>
<svg id="_Слой_2" data-name="Слой 2" xmlns="http://www.w3.org/2000/svg" viewBox="0 0 644.53 277.29">
  <defs>
    <style>
      .cls-1 {
        stroke-width: .27px;
      }

      .cls-1, .cls-2, .cls-3, .cls-4, .cls-5, .cls-6, .cls-7, .cls-8, .cls-9, .cls-10, .cls-11, .cls-12, .cls-13, .cls-14, .cls-15, .cls-16, .cls-17, .cls-18, .cls-19, .cls-20, .cls-21, .cls-22, .cls-23, .cls-24, .cls-25, .cls-26, .cls-27, .cls-28, .cls-29, .cls-30, .cls-31, .cls-32, .cls-33, .cls-34, .cls-35, .cls-36, .cls-37, .cls-38, .cls-39, .cls-40, .cls-41, .cls-42, .cls-43, .cls-44, .cls-45, .cls-46, .cls-47, .cls-48, .cls-49, .cls-50, .cls-51, .cls-52, .cls-53, .cls-54, .cls-55, .cls-56, .cls-57, .cls-58, .cls-59, .cls-60, .cls-61, .cls-62, .cls-63, .cls-64, .cls-65, .cls-66, .cls-67, .cls-68, .cls-69, .cls-70, .cls-71, .cls-72, .cls-73, .cls-74, .cls-75, .cls-76, .cls-77, .cls-78, .cls-79, .cls-80, .cls-81, .cls-82, .cls-83, .cls-84, .cls-85, .cls-86, .cls-87, .cls-88, .cls-89, .cls-90, .cls-91, .cls-92, .cls-93, .cls-94, .cls-95, .cls-96, .cls-97, .cls-98, .cls-99, .cls-100, .cls-101, .cls-102, .cls-103, .cls-104, .cls-105, .cls-106, .cls-107, .cls-108, .cls-109, .cls-110, .cls-111, .cls-112, .cls-113, .cls-114, .cls-115, .cls-116, .cls-117, .cls-118, .cls-119, .cls-120, .cls-121, .cls-122, .cls-123, .cls-124, .cls-125, .cls-126, .cls-127, .cls-128, .cls-129, .cls-130, .cls-131, .cls-132, .cls-133, .cls-134, .cls-135, .cls-136, .cls-137, .cls-138, .cls-139, .cls-140, .cls-141, .cls-142, .cls-143, .cls-144, .cls-145, .cls-146, .cls-147, .cls-148, .cls-149, .cls-150, .cls-151, .cls-152, .cls-153, .cls-154, .cls-155, .cls-156, .cls-157, .cls-158, .cls-159, .cls-160, .cls-161, .cls-162, .cls-163, .cls-164, .cls-165, .cls-166, .cls-167, .cls-168, .cls-169, .cls-170, .cls-171, .cls-172, .cls-173, .cls-174, .cls-175, .cls-176, .cls-177, .cls-178, .cls-179, .cls-180, .cls-181, .cls-182, .cls-183, .cls-184, .cls-185, .cls-186, .cls-187, .cls-188, .cls-189, .cls-190, .cls-191, .cls-192, .cls-193, .cls-194, .cls-195, .cls-196, .cls-197, .cls-198, .cls-199, .cls-200, .cls-201, .cls-202, .cls-203, .cls-204, .cls-205, .cls-206, .cls-207, .cls-208, .cls-209, .cls-210, .cls-211, .cls-212, .cls-213, .cls-214, .cls-215, .cls-216, .cls-217, .cls-218, .cls-219, .cls-220, .cls-221, .cls-222, .cls-223, .cls-224, .cls-225, .cls-226, .cls-227, .cls-228, .cls-229, .cls-230, .cls-231, .cls-232, .cls-233, .cls-234, .cls-235, .cls-236, .cls-237, .cls-238, .cls-239 {
        fill: none;
        stroke: #fff;
        stroke-miterlimit: 10;
      }

      .cls-2 {
        stroke-width: .34px;
      }

      .cls-3 {
        stroke-width: .3px;
      }

      .cls-4 {
        stroke-width: .29px;
      }

      .cls-5 {
        stroke-width: .25px;
      }

      .cls-6 {
        stroke-width: .25px;
      }

      .cls-7 {
        stroke-width: .19px;
      }

      .cls-8 {
        stroke-width: .14px;
      }

      .cls-9 {
        stroke-width: .16px;
      }

      .cls-10 {
        stroke-width: .29px;
      }

      .cls-11 {
        stroke-width: .16px;
      }

      .cls-12 {
        stroke-width: .32px;
      }

      .cls-13 {
        stroke-width: .34px;
      }

      .cls-14 {
        stroke-width: .21px;
      }

      .cls-15 {
        stroke-width: .2px;
      }

      .cls-16 {
        stroke-width: .18px;
      }

      .cls-17 {
        stroke-width: .17px;
      }

      .cls-18 {
        stroke-width: .38px;
      }

      .cls-19 {
        stroke-width: .21px;
      }

      .cls-20 {
        stroke-width: .24px;
      }

      .cls-21 {
        stroke-width: .21px;
      }

      .cls-22 {
        stroke-width: .16px;
      }

      .cls-23 {
        stroke-width: .25px;
      }

      .cls-24 {
        stroke-width: .15px;
      }

      .cls-25 {
        stroke-width: .38px;
      }

      .cls-26 {
        stroke-width: .26px;
      }

      .cls-27 {
        stroke-width: .27px;
      }

      .cls-28 {
        stroke-width: .42px;
      }

      .cls-29 {
        stroke-width: .32px;
      }

      .cls-30 {
        stroke-width: .34px;
      }

      .cls-31 {
        stroke-width: .2px;
      }

      .cls-32 {
        stroke-width: .28px;
      }

      .cls-33 {
        stroke-width: .27px;
      }

      .cls-34 {
        stroke-width: .42px;
      }

      .cls-35 {
        stroke-width: .4px;
      }

      .cls-36 {
        stroke-width: .37px;
      }

      .cls-37 {
        stroke-width: .34px;
      }

      .cls-38 {
        stroke-width: .14px;
      }

      .cls-39 {
        stroke-width: .24px;
      }

      .cls-40 {
        stroke-width: .29px;
      }

      .cls-41 {
        stroke-width: .28px;
      }

      .cls-42 {
        stroke-width: .19px;
      }

      .cls-43 {
        stroke-width: .38px;
      }

      .cls-44 {
        stroke-width: .19px;
      }

      .cls-45 {
        stroke-width: .33px;
      }

      .cls-46 {
        stroke-width: .39px;
      }

      .cls-47 {
        stroke-width: .2px;
      }

      .cls-48 {
        stroke-width: .15px;
      }

      .cls-49 {
        stroke-width: .32px;
      }

      .cls-50 {
        stroke-width: .18px;
      }

      .cls-51 {
        stroke-width: .22px;
      }

      .cls-52 {
        stroke-width: .15px;
      }

      .cls-53 {
        stroke-width: .15px;
      }

      .cls-54 {
        stroke-width: .22px;
      }

      .cls-55 {
        stroke-width: .15px;
      }

      .cls-56 {
        stroke-width: .18px;
      }

      .cls-57 {
        stroke-width: .2px;
      }

      .cls-58 {
        stroke-width: .16px;
      }

      .cls-59 {
        stroke-width: .3px;
      }

      .cls-60 {
        stroke-width: .15px;
      }

      .cls-61 {
        stroke-width: .27px;
      }

      .cls-62 {
        stroke-width: .17px;
      }

      .cls-63 {
        stroke-width: .34px;
      }

      .cls-64 {
        stroke-width: .27px;
      }

      .cls-65 {
        stroke-width: .21px;
      }

      .cls-66 {
        stroke-width: .32px;
      }

      .cls-67 {
        stroke-width: .15px;
      }

      .cls-68 {
        stroke-width: .26px;
      }

      .cls-69 {
        stroke-width: .39px;
      }

      .cls-70 {
        stroke-width: .19px;
      }

      .cls-71 {
        stroke-width: .21px;
      }

      .cls-72 {
        stroke-width: .14px;
      }

      .cls-73 {
        stroke-width: .29px;
      }

      .cls-74 {
        stroke-width: .4px;
      }

      .cls-75 {
        stroke-width: .32px;
      }

      .cls-76 {
        stroke-width: .22px;
      }

      .cls-77 {
        stroke-width: .24px;
      }

      .cls-78 {
        stroke-width: .14px;
      }

      .cls-79 {
        stroke-width: .14px;
      }

      .cls-80 {
        stroke-width: .17px;
      }

      .cls-81 {
        stroke-width: .33px;
      }

      .cls-82 {
        stroke-width: .35px;
      }

      .cls-83 {
        stroke-width: .22px;
      }

      .cls-84 {
        stroke-width: .26px;
      }

      .cls-85 {
        stroke-width: .36px;
      }

      .cls-86 {
        stroke-width: .21px;
      }

      .cls-87 {
        stroke-width: .38px;
      }

      .cls-88 {
        stroke-width: .21px;
      }

      .cls-89 {
        stroke-width: .35px;
      }

      .cls-90 {
        stroke-width: .26px;
      }

      .cls-91 {
        stroke-width: .4px;
      }

      .cls-92 {
        stroke-width: .26px;
      }

      .cls-93 {
        stroke-width: .31px;
      }

      .cls-94 {
        stroke-width: .23px;
      }

      .cls-95 {
        stroke-width: .15px;
      }

      .cls-96 {
        stroke-width: .34px;
      }

      .cls-97 {
        stroke-width: .3px;
      }

      .cls-98 {
        stroke-width: .17px;
      }

      .cls-99 {
        stroke-width: .22px;
      }

      .cls-100 {
        stroke-width: .39px;
      }

      .cls-101 {
        stroke-width: .38px;
      }

      .cls-102 {
        stroke-width: .18px;
      }

      .cls-103 {
        stroke-width: .32px;
      }

      .cls-104 {
        stroke-width: .23px;
      }

      .cls-105 {
        stroke-width: .19px;
      }

      .cls-106 {
        stroke-width: .26px;
      }

      .cls-107 {
        stroke-width: .33px;
      }

      .cls-108 {
        stroke-width: .25px;
      }

      .cls-109 {
        stroke-width: .41px;
      }

      .cls-110 {
        stroke-width: .23px;
      }

      .cls-111 {
        stroke-width: .28px;
      }

      .cls-112 {
        stroke-width: .15px;
      }

      .cls-113 {
        stroke-width: .21px;
      }

      .cls-114 {
        stroke-width: .34px;
      }

      .cls-115 {
        stroke-width: .19px;
      }

      .cls-116 {
        stroke-width: .23px;
      }

      .cls-117 {
        stroke-width: .23px;
      }

      .cls-118 {
        stroke-width: .28px;
      }

      .cls-119 {
        stroke-width: .26px;
      }

      .cls-120 {
        stroke-width: .23px;
      }

      .cls-121 {
        stroke-width: .31px;
      }

      .cls-122 {
        stroke-width: .28px;
      }

      .cls-123 {
        stroke-width: .36px;
      }

      .cls-124 {
        stroke-width: .25px;
      }

      .cls-125 {
        stroke-width: .42px;
      }

      .cls-126 {
        stroke-width: .17px;
      }

      .cls-127 {
        stroke-width: .35px;
      }

      .cls-128 {
        stroke-width: .28px;
      }

      .cls-129 {
        stroke-width: .35px;
      }

      .cls-130 {
        stroke-width: .24px;
      }

      .cls-131 {
        stroke-width: .39px;
      }

      .cls-132 {
        stroke-width: .29px;
      }

      .cls-133 {
        stroke-width: .2px;
      }

      .cls-134 {
        stroke-width: .18px;
      }

      .cls-135 {
        stroke-width: .19px;
      }

      .cls-136 {
        stroke-width: .31px;
      }

      .cls-137 {
        stroke-width: .19px;
      }

      .cls-138 {
        stroke-width: .24px;
      }

      .cls-139 {
        stroke-width: .3px;
      }

      .cls-140 {
        stroke-width: .41px;
      }

      .cls-141 {
        stroke-width: .2px;
      }

      .cls-142 {
        stroke-width: .17px;
      }

      .cls-143 {
        stroke-width: .37px;
      }

      .cls-144 {
        stroke-width: .3px;
      }

      .cls-145 {
        stroke-width: .31px;
      }

      .cls-146 {
        stroke-width: .23px;
      }

      .cls-147 {
        stroke-width: .32px;
      }

      .cls-148 {
        stroke-width: .41px;
      }

      .cls-149 {
        stroke-width: .21px;
      }

      .cls-150 {
        stroke-width: .33px;
      }

      .cls-151 {
        stroke-width: .22px;
      }

      .cls-152 {
        stroke-width: .26px;
      }

      .cls-153 {
        stroke-width: .39px;
      }

      .cls-154 {
        stroke-width: .18px;
      }

      .cls-155 {
        stroke-width: .14px;
      }

      .cls-156 {
        stroke-width: .23px;
      }

      .cls-157 {
        stroke-width: .19px;
      }

      .cls-158 {
        stroke-width: .16px;
      }

      .cls-159 {
        stroke-width: .4px;
      }

      .cls-160 {
        stroke-width: .14px;
      }

      .cls-161 {
        stroke-width: .15px;
      }

      .cls-162 {
        stroke-width: .3px;
      }

      .cls-163 {
        stroke-width: .22px;
      }

      .cls-164 {
        stroke-width: .17px;
      }

      .cls-165 {
        stroke-width: .16px;
      }

      .cls-166 {
        stroke-width: .31px;
      }

      .cls-167 {
        stroke-width: .2px;
      }

      .cls-168 {
        stroke-width: .28px;
      }

      .cls-169 {
        stroke-width: .24px;
      }

      .cls-170 {
        stroke-width: .24px;
      }

      .cls-171 {
        stroke-width: .16px;
      }

      .cls-172 {
        stroke-width: .27px;
      }

      .cls-173 {
        stroke-width: .18px;
      }

      .cls-174 {
        stroke-width: .19px;
      }

      .cls-175 {
        stroke-width: .35px;
      }

      .cls-176 {
        stroke-width: .14px;
      }

      .cls-177 {
        stroke-width: .2px;
      }

      .cls-178 {
        stroke-width: .29px;
      }

      .cls-179 {
        stroke-width: .15px;
      }

      .cls-180 {
        stroke-width: .15px;
      }

      .cls-181 {
        stroke-width: .17px;
      }

      .cls-182 {
        stroke-width: .18px;
      }

      .cls-183 {
        stroke-width: .17px;
      }

      .cls-184 {
        stroke-width: .25px;
      }

      .cls-185 {
        stroke-width: .36px;
      }

      .cls-186 {
        stroke-width: .36px;
      }

      .cls-187 {
        stroke-width: .16px;
      }

      .cls-188 {
        stroke-width: .3px;
      }

      .cls-189 {
        stroke-width: .24px;
      }

      .cls-190 {
        stroke-width: .19px;
      }

      .cls-191 {
        stroke-width: .33px;
      }

      .cls-192 {
        stroke-width: .17px;
      }

      .cls-193 {
        stroke-width: .16px;
      }

      .cls-194 {
        stroke-width: .15px;
      }

      .cls-195 {
        stroke-width: .16px;
      }

      .cls-196 {
        stroke-width: .16px;
      }

      .cls-197 {
        stroke-width: .39px;
      }

      .cls-198 {
        stroke-width: .18px;
      }

      .cls-199 {
        stroke-width: .37px;
      }

      .cls-200 {
        stroke-width: .19px;
      }

      .cls-201 {
        stroke-width: .37px;
      }

      .cls-202 {
        stroke-width: .21px;
      }

      .cls-203 {
        stroke-width: .16px;
      }

      .cls-204 {
        stroke-width: .14px;
      }

      .cls-205 {
        stroke-width: .24px;
      }

      .cls-206 {
        stroke-width: .27px;
      }

      .cls-207 {
        stroke-width: .31px;
      }

      .cls-208 {
        stroke-width: .21px;
      }

      .cls-209 {
        stroke-width: .37px;
      }

      .cls-210 {
        stroke-width: .22px;
      }

      .cls-211 {
        stroke-width: .14px;
      }

      .cls-212 {
        stroke-width: .25px;
      }

      .cls-213 {
        stroke-width: .28px;
      }

      .cls-214 {
        stroke-width: .31px;
      }

      .cls-215 {
        stroke-width: .18px;
      }

      .cls-216 {
        stroke-width: .38px;
      }

      .cls-217 {
        stroke-width: .25px;
      }

      .cls-218 {
        stroke-width: .4px;
      }

      .cls-219 {
        stroke-width: .22px;
      }

      .cls-220 {
        stroke-width: .17px;
      }

      .cls-221 {
        stroke-width: .17px;
      }

      .cls-222 {
        stroke-width: .29px;
      }

      .cls-223 {
        stroke-width: .15px;
      }

      .cls-224 {
        stroke-width: .35px;
      }

      .cls-225 {
        stroke-width: .36px;
      }

      .cls-226 {
        stroke-width: .41px;
      }

      .cls-227 {
        stroke-width: .36px;
      }

      .cls-228 {
        stroke-width: .42px;
      }

      .cls-229 {
        stroke-width: .2px;
      }

      .cls-230 {
        stroke-width: .17px;
      }

      .cls-231 {
        stroke-width: .23px;
      }

      .cls-232 {
        stroke-width: .23px;
      }

      .cls-233 {
        stroke-width: .18px;
      }

      .cls-234 {
        stroke-width: .33px;
      }

      .cls-235 {
        stroke-width: .2px;
      }

      .cls-236 {
        stroke-width: .27px;
      }

      .cls-237 {
        stroke-width: .41px;
      }

      .cls-238 {
        stroke-width: .15px;
      }

      .cls-239 {
        stroke-width: .16px;
      }
    </style>
  </defs>
  <g id="_Слой_1-2" data-name="Слой 1">
    <g>
      <path class="cls-28" d="m184.85,277.22C233.77,143.03,356.78,19.13,459.89.21"/>
      <path class="cls-125" d="m176.39,273.91C233.26,141.98,363.84,21.04,468.35,3.52"/>
      <path class="cls-34" d="m168.1,270.54C232.82,140.94,370.81,23.01,476.63,6.88"/>
      <path class="cls-228" d="m159.99,267.13C232.43,139.9,377.69,25.03,484.75,10.3"/>
      <path class="cls-237" d="m152.04,263.67C232.11,138.88,384.46,27.1,492.68,13.76"/>
      <path class="cls-148" d="m144.28,260.16C231.84,137.86,391.14,29.23,500.44,17.27"/>
      <path class="cls-226" d="m136.7,256.61C231.63,136.86,397.71,31.39,508.02,20.82"/>
      <path class="cls-109" d="m129.3,253.02C231.48,135.86,404.17,33.61,515.4,24.41"/>
      <path class="cls-140" d="m122.1,249.4C231.39,134.88,410.52,35.87,522.61,28.04"/>
      <path class="cls-218" d="m115.08,245.74C231.35,133.9,416.76,38.17,529.62,31.7"/>
      <path class="cls-91" d="m108.26,242.04C231.37,132.94,422.88,40.52,536.43,35.4"/>
      <path class="cls-35" d="m101.63,238.32C231.45,132,428.88,42.9,543.05,39.12"/>
      <path class="cls-74" d="m95.2,234.57C231.58,131.06,434.76,45.32,549.48,42.87"/>
      <path class="cls-159" d="m88.98,230.8C231.77,130.14,440.52,47.77,555.7,46.64"/>
      <path class="cls-153" d="m82.95,227C232.01,129.23,446.15,50.26,561.72,50.44"/>
      <path class="cls-69" d="m77.13,223.18C232.31,128.34,451.65,52.78,567.53,54.26"/>
      <path class="cls-197" d="m71.51,219.35C232.65,127.46,457.02,55.33,573.14,58.09"/>
      <path class="cls-131" d="m66.1,215.5C233.05,126.59,462.25,57.91,578.54,61.94"/>
      <path class="cls-46" d="m60.9,211.65C233.51,125.75,467.35,60.51,583.74,65.79"/>
      <path class="cls-100" d="m55.92,207.78C234.01,124.91,472.31,63.14,588.72,69.66"/>
      <path class="cls-87" d="m51.14,203.91C234.56,124.1,477.14,65.79,593.49,73.54"/>
      <path class="cls-18" d="m46.57,200.03C235.16,123.3,481.82,68.46,598.05,77.42"/>
      <path class="cls-25" d="m42.22,196.15c193.59-73.63,444.14-125,560.18-114.85"/>
      <path class="cls-43" d="m38.08,192.27c198.43-70.52,452.68-118.42,568.45-107.09"/>
      <path class="cls-101" d="m34.15,188.39c203.1-67.39,460.85-111.82,576.3-99.34"/>
      <path class="cls-216" d="m30.44,184.52c207.6-64.25,468.67-105.21,583.71-91.6"/>
      <path class="cls-143" d="m26.95,180.66c211.92-61.09,476.12-98.61,590.69-83.87"/>
      <path class="cls-199" d="m23.67,176.8c216.08-57.93,483.21-92,597.25-76.16"/>
      <path class="cls-209" d="m20.6,172.96c220.07-54.77,489.93-85.4,603.37-68.48"/>
      <path class="cls-201" d="m17.75,169.13c223.88-51.6,496.29-78.8,609.06-60.83"/>
      <path class="cls-36" d="m15.12,165.32c227.52-48.42,502.28-72.22,614.33-53.21"/>
      <path class="cls-227" d="m12.7,161.53c230.98-45.25,507.91-65.66,619.16-45.63"/>
      <path class="cls-185" d="m10.49,157.76c234.27-42.08,513.17-59.11,623.56-38.09"/>
      <path class="cls-85" d="m8.5,154.02c237.38-38.91,518.06-52.59,627.54-30.59"/>
      <path class="cls-225" d="m6.72,150.29c240.32-35.74,522.59-46.1,631.1-23.15"/>
      <path class="cls-123" d="m5.15,146.6c243.08-32.59,526.75-39.64,634.23-15.77"/>
      <path class="cls-186" d="m3.8,142.94c245.66-29.44,530.54-33.22,636.94-8.44"/>
      <path class="cls-224" d="m2.65,139.3c248.07-26.3,533.97-26.83,639.22-1.17"/>
      <path class="cls-127" d="m1.71,135.7c250.3-23.18,537.04-20.49,641.1,6.02"/>
      <path class="cls-175" d="m.98,132.14c252.36-20.07,539.75-14.19,642.56,13.15"/>
      <path class="cls-89" d="m.45,128.61c254.24-16.98,542.1-7.95,643.6,20.2"/>
      <path class="cls-82" d="m.13,125.13c255.95-13.91,544.1-1.75,644.24,27.18"/>
      <path class="cls-129" d="m0,121.68c257.48-10.86,545.73,4.38,644.48,34.07"/>
      <path class="cls-2" d="m.09,118.28c258.84-7.82,547.02,10.46,644.31,40.88"/>
      <path class="cls-37" d="m.37,114.92c260.03-4.82,547.95,16.47,643.75,47.59"/>
      <path class="cls-114" d="m.84,111.6c261.04-1.83,548.54,22.42,642.79,54.22"/>
      <path class="cls-13" d="m1.51,108.33c261.88,1.12,548.78,28.3,641.45,60.75"/>
      <path class="cls-63" d="m2.37,105.12c262.56,4.05,548.68,34.1,639.72,67.18"/>
      <path class="cls-96" d="m3.42,101.95c263.06,6.95,548.24,39.83,637.61,73.52"/>
      <path class="cls-30" d="m4.66,98.84c263.4,9.82,547.47,45.48,635.13,79.74"/>
      <path class="cls-191" d="m6.09,95.78c263.57,12.65,546.37,51.06,632.27,85.86"/>
      <path class="cls-234" d="m7.69,92.77c263.58,15.45,544.93,56.54,629.06,91.87"/>
      <path class="cls-81" d="m9.48,89.82c263.42,18.22,543.18,61.95,625.48,97.77"/>
      <path class="cls-45" d="m11.44,86.93c263.1,20.95,541.1,67.26,621.55,103.55"/>
      <path class="cls-107" d="m13.58,84.1c262.63,23.63,538.71,72.48,617.27,109.21"/>
      <path class="cls-150" d="m15.89,81.33c261.99,26.28,536.01,77.61,612.65,114.76"/>
      <path class="cls-103" d="m18.36,78.61c261.2,28.89,533,82.64,607.69,120.18"/>
      <path class="cls-29" d="m21,75.97c260.25,31.46,529.69,87.58,602.41,125.47"/>
      <path class="cls-75" d="m23.8,73.38c259.16,33.98,526.08,92.41,596.8,130.64"/>
      <path class="cls-147" d="m26.77,70.86c257.91,36.46,522.18,97.15,590.87,135.68"/>
      <path class="cls-66" d="m29.88,68.4c256.51,38.89,518,101.77,584.63,140.59"/>
      <path class="cls-49" d="m33.15,66.01c254.97,41.28,513.53,106.3,578.09,145.37"/>
      <path class="cls-12" d="m36.57,63.69c253.28,43.62,508.79,110.71,571.26,150.01"/>
      <path class="cls-145" d="m40.13,61.44c251.46,45.91,503.77,115.02,564.13,154.51"/>
      <path class="cls-207" d="m43.83,59.25c249.49,48.15,498.49,119.21,556.72,158.88"/>
      <path class="cls-121" d="m47.67,57.14c247.39,50.34,492.96,123.29,549.03,163.11"/>
      <path class="cls-93" d="m51.65,55.09c245.16,52.48,487.16,127.26,541.08,167.2"/>
      <path class="cls-214" d="m55.75,53.12c242.79,54.56,481.12,131.11,532.87,171.15"/>
      <path class="cls-136" d="m59.98,51.21c240.3,56.59,474.84,134.84,524.4,174.95"/>
      <path class="cls-166" d="m64.34,49.38c237.68,58.57,468.33,138.46,515.69,178.61"/>
      <path class="cls-97" d="m68.81,47.62c234.94,60.5,461.58,141.96,506.74,182.13"/>
      <path class="cls-188" d="m73.4,45.94c232.08,62.36,454.62,145.33,497.56,185.5"/>
      <path class="cls-59" d="m78.1,44.32c229.1,64.18,447.43,148.59,488.15,188.73"/>
      <path class="cls-3" d="m82.91,42.78c226.01,65.93,440.04,151.72,478.54,191.8"/>
      <path class="cls-144" d="m87.82,41.32c222.8,67.63,432.44,154.73,468.71,194.74"/>
      <path class="cls-139" d="m92.83,39.92c219.49,69.27,424.65,157.61,458.69,197.52"/>
      <path class="cls-162" d="m97.93,38.6c216.08,70.85,416.66,160.38,448.48,200.15"/>
      <path class="cls-40" d="m103.13,37.36c212.56,72.38,408.5,163.01,438.08,202.64"/>
      <path class="cls-222" d="m108.41,36.19c208.94,73.84,400.15,165.52,427.52,204.98"/>
      <path class="cls-4" d="m113.78,35.09c205.23,75.25,391.64,167.91,416.78,207.17"/>
      <path class="cls-178" d="m119.22,34.07c201.42,76.6,382.96,170.17,405.89,209.21"/>
      <path class="cls-10" d="m124.74,33.12c197.53,77.88,374.13,172.3,394.84,211.1"/>
      <path class="cls-132" d="m130.33,32.25c193.55,79.11,365.15,174.31,383.66,212.85"/>
      <path class="cls-73" d="m135.99,31.45c189.49,80.27,356.02,176.19,372.34,214.44"/>
      <path class="cls-168" d="m141.71,30.73c185.35,81.38,346.76,177.94,360.9,215.89"/>
      <path class="cls-32" d="m147.49,30.07c181.13,82.42,337.38,179.57,349.34,217.19"/>
      <path class="cls-118" d="m153.32,29.5c176.84,83.41,327.87,181.07,337.67,218.35"/>
      <path class="cls-213" d="m159.21,28.99c172.48,84.33,318.24,182.44,325.91,219.36"/>
      <path class="cls-41" d="m165.14,28.56c168.05,85.19,308.51,183.69,314.05,220.22"/>
      <path class="cls-128" d="m171.11,28.2c163.56,86,298.68,184.82,302.1,220.94"/>
      <path class="cls-122" d="m177.12,27.91c159.01,86.74,288.76,185.82,290.08,221.52"/>
      <path class="cls-111" d="m183.16,27.69c154.41,87.42,278.75,186.69,278,221.95"/>
      <path class="cls-33" d="m189.23,27.54c149.75,88.04,268.66,187.44,265.85,222.25"/>
      <path class="cls-172" d="m195.33,27.46c145.05,88.6,258.5,188.07,253.65,222.4"/>
      <path class="cls-236" d="m201.45,27.45c140.29,89.1,248.27,188.58,241.41,222.41"/>
      <path class="cls-61" d="m207.59,27.52c135.5,89.54,237.98,188.96,229.14,222.29"/>
      <path class="cls-206" d="m213.74,27.64c130.66,89.92,227.65,189.23,216.83,222.03"/>
      <path class="cls-27" d="m219.9,27.84c125.79,90.24,217.27,189.37,204.51,221.63"/>
      <path class="cls-64" d="m226.07,28.1c120.89,90.5,206.85,189.4,192.18,221.11"/>
      <path class="cls-1" d="m232.24,28.43c115.96,90.71,196.4,189.3,179.84,220.45"/>
      <path class="cls-26" d="m238.41,28.83c111,90.85,185.92,189.1,167.5,219.65"/>
      <path class="cls-106" d="m244.57,29.29c106.02,90.94,175.43,188.77,155.18,218.74"/>
      <path class="cls-92" d="m250.72,29.81c101.03,90.97,164.93,188.34,142.87,217.69"/>
      <path class="cls-84" d="m256.86,30.39c96.01,90.95,154.42,187.79,130.59,216.52"/>
      <path class="cls-68" d="m262.98,31.04c90.98,90.87,143.92,187.13,118.35,215.22"/>
      <path class="cls-90" d="m269.09,31.75c85.95,90.73,133.42,186.36,106.14,213.81"/>
      <path class="cls-152" d="m275.17,32.51c80.9,90.54,122.94,185.48,93.99,212.28"/>
      <path class="cls-119" d="m281.22,33.34c75.86,90.29,112.48,184.5,81.89,210.62"/>
      <path class="cls-108" d="m287.24,34.22c70.81,89.99,102.05,183.41,69.85,208.86"/>
      <path class="cls-23" d="m293.22,35.16c65.77,89.64,91.65,182.22,57.88,206.98"/>
      <path class="cls-6" d="m299.17,36.15c60.73,89.24,81.3,180.92,45.98,204.99"/>
      <path class="cls-124" d="m305.08,37.2c55.7,88.78,70.98,179.53,34.17,202.89"/>
      <path class="cls-5" d="m310.94,38.3c50.69,88.28,60.73,178.04,22.44,200.69"/>
      <path class="cls-212" d="m316.76,39.45c45.69,87.72,50.53,176.45,10.82,198.38"/>
      <path class="cls-217" d="m322.52,40.66c40.71,87.11,40.39,174.77-.71,195.97"/>
      <path class="cls-184" d="m328.23,41.91c35.75,86.46,30.32,172.99-12.13,193.47"/>
      <path class="cls-39" d="m333.88,43.21c30.81,85.76,20.33,171.13-23.44,190.86"/>
      <path class="cls-77" d="m339.48,44.56c25.9,85.01,10.42,169.17-34.62,188.16"/>
      <path class="cls-189" d="m345.01,45.95c21.02,84.22.59,167.13-45.68,185.38"/>
      <path class="cls-205" d="m350.47,47.39c16.17,83.38-9.15,165.01-56.61,182.5"/>
      <path class="cls-20" d="m355.87,48.87c11.36,82.5-18.78,162.8-67.4,179.54"/>
      <path class="cls-169" d="m361.2,50.4c6.59,81.58-28.32,160.51-78.05,176.49"/>
      <path class="cls-138" d="m366.45,51.96c1.85,80.61-37.75,158.15-88.55,173.36"/>
      <path class="cls-130" d="m371.62,53.56c-2.84,79.6-47.07,155.71-98.9,170.15"/>
      <path class="cls-170" d="m376.72,55.2c-7.48,78.55-56.28,153.19-109.1,166.87"/>
      <path class="cls-146" d="m381.74,56.88c-12.08,77.47-65.36,150.6-119.12,163.52"/>
      <path class="cls-94" d="m386.67,58.59c-16.63,76.34-74.32,147.95-128.99,160.09"/>
      <path class="cls-120" d="m391.52,60.33c-21.12,75.18-83.15,145.23-138.68,156.6"/>
      <path class="cls-104" d="m396.28,62.11c-25.56,73.99-91.84,142.44-148.19,153.05"/>
      <path class="cls-156" d="m400.94,63.92c-29.94,72.76-100.4,139.59-157.53,149.43"/>
      <path class="cls-232" d="m405.52,65.76c-34.27,71.49-108.82,136.68-166.68,145.76"/>
      <path class="cls-110" d="m410,67.62c-38.53,70.2-117.09,133.72-175.64,142.02"/>
      <path class="cls-231" d="m414.39,69.52c-42.73,68.87-125.21,130.7-184.41,138.24"/>
      <path class="cls-117" d="m418.68,71.43c-46.86,67.51-133.18,127.62-192.98,134.4"/>
      <path class="cls-116" d="m422.87,73.37c-50.93,66.12-140.99,124.5-201.36,130.52"/>
      <path class="cls-51" d="m426.96,75.34c-54.92,64.71-148.64,121.33-209.53,126.59"/>
      <path class="cls-163" d="m430.94,77.32c-58.85,63.26-156.12,118.11-217.5,122.63"/>
      <path class="cls-54" d="m434.82,79.32c-62.7,61.8-163.45,114.85-225.25,118.62"/>
      <path class="cls-210" d="m438.6,81.35c-66.47,60.3-170.6,111.55-232.8,114.57"/>
      <path class="cls-151" d="m442.26,83.38c-70.18,58.79-177.58,108.21-240.13,110.5"/>
      <path class="cls-99" d="m445.82,85.44c-73.8,57.25-184.38,104.83-247.25,106.39"/>
      <path class="cls-219" d="m449.27,87.51c-77.34,55.69-191.01,101.42-254.14,102.25"/>
      <path class="cls-83" d="m452.61,89.58c-80.8,54.11-197.46,97.98-260.82,98.09"/>
      <path class="cls-76" d="m455.84,91.68c-84.19,52.51-203.73,94.52-267.27,93.91"/>
      <path class="cls-149" d="m458.95,93.78c-87.48,50.9-209.81,91.02-273.49,89.71"/>
      <path class="cls-21" d="m461.95,95.88c-90.69,49.26-215.7,87.5-279.49,85.49"/>
      <path class="cls-208" d="m464.84,98c-93.82,47.62-221.41,83.96-285.26,81.26"/>
      <path class="cls-113" d="m467.61,100.12c-96.86,45.96-226.92,80.41-290.8,77.02"/>
      <path class="cls-86" d="m470.27,102.25c-99.81,44.28-232.25,76.83-296.11,72.77"/>
      <path class="cls-202" d="m472.81,104.37c-102.67,42.6-237.38,73.24-301.19,68.52"/>
      <path class="cls-19" d="m475.23,106.5c-105.44,40.9-242.32,69.64-306.03,64.26"/>
      <path class="cls-71" d="m477.53,108.63c-108.12,39.19-247.06,66.03-310.63,60"/>
      <path class="cls-88" d="m479.72,110.76c-110.71,37.48-251.6,62.41-315.01,55.75"/>
      <path class="cls-65" d="m481.79,112.88c-113.21,35.76-255.95,58.79-319.14,51.49"/>
      <path class="cls-14" d="m483.74,115.01c-115.61,34.03-260.1,55.16-323.04,47.25"/>
      <path class="cls-15" d="m485.58,117.12c-117.92,32.29-264.04,51.54-326.71,43.02"/>
      <path class="cls-177" d="m487.29,119.23c-120.13,30.56-267.79,47.91-330.14,38.8"/>
      <path class="cls-235" d="m488.89,121.33c-122.25,28.82-271.34,44.29-333.33,34.6"/>
      <path class="cls-57" d="m490.37,123.43c-124.28,27.08-274.68,40.68-336.28,30.41"/>
      <path class="cls-167" d="m491.73,125.51c-126.2,25.33-277.83,37.07-339.01,26.24"/>
      <path class="cls-229" d="m492.98,127.58c-128.04,23.59-280.77,33.48-341.49,22.1"/>
      <path class="cls-31" d="m494.11,129.64c-129.77,21.85-283.52,29.9-343.74,17.98"/>
      <path class="cls-141" d="m495.12,131.69c-131.41,20.12-286.06,26.33-345.76,13.89"/>
      <path class="cls-47" d="m496.01,133.72c-132.95,18.38-288.4,22.78-347.54,9.83"/>
      <path class="cls-133" d="m496.79,135.74c-134.4,16.66-290.54,19.25-349.1,5.79"/>
      <path class="cls-115" d="m497.45,137.73c-135.75,14.93-292.48,15.74-350.42,1.8"/>
      <path class="cls-157" d="m498,139.72c-137,13.22-294.22,12.25-351.51-2.16"/>
      <path class="cls-135" d="m498.43,141.68c-138.16,11.51-295.77,8.79-352.38-6.08"/>
      <path class="cls-70" d="m498.76,143.62c-139.22,9.81-297.11,5.35-353.02-9.97"/>
      <path class="cls-174" d="m498.97,145.54c-140.18,8.12-298.26,1.95-353.44-13.81"/>
      <path class="cls-137" d="m499.06,147.44c-141.05,6.44-299.22-1.43-353.63-17.6"/>
      <path class="cls-7" d="m499.05,149.31c-141.83,4.77-299.98-4.77-353.6-21.35"/>
      <path class="cls-42" d="m498.93,151.16c-142.51,3.12-300.55-8.08-353.36-25.05"/>
      <path class="cls-200" d="m498.7,152.99c-143.09,1.48-300.93-11.36-352.89-28.7"/>
      <path class="cls-105" d="m498.36,154.79c-143.58-.15-301.11-14.59-352.22-32.3"/>
      <path class="cls-190" d="m497.92,156.56c-143.98-1.76-301.11-17.79-351.33-35.85"/>
      <path class="cls-44" d="m497.38,158.31c-144.28-3.35-300.93-20.95-350.23-39.34"/>
      <path class="cls-182" d="m496.73,160.02c-144.49-4.93-300.56-24.06-348.93-42.77"/>
      <path class="cls-102" d="m495.97,161.71c-144.61-6.49-300-27.13-347.42-46.15"/>
      <path class="cls-215" d="m495.12,163.37c-144.64-8.04-299.27-30.16-345.72-49.46"/>
      <path class="cls-233" d="m494.17,165c-144.58-9.56-298.36-33.14-343.81-52.72"/>
      <path class="cls-198" d="m493.12,166.59c-144.43-11.06-297.27-36.07-341.71-55.91"/>
      <path class="cls-173" d="m491.98,168.16c-144.2-12.54-296.01-38.95-339.42-59.03"/>
      <path class="cls-16" d="m490.74,169.69c-143.87-14-294.57-41.78-336.93-62.09"/>
      <path class="cls-134" d="m489.4,171.19c-143.46-15.44-292.97-44.55-334.27-65.09"/>
      <path class="cls-50" d="m487.98,172.65c-142.97-16.86-291.2-47.28-331.42-68.01"/>
      <path class="cls-56" d="m486.47,174.08c-142.39-18.25-289.27-49.95-328.39-70.87"/>
      <path class="cls-154" d="m484.87,175.47c-141.73-19.61-287.18-52.56-325.19-73.66"/>
      <path class="cls-164" d="m483.18,176.83c-140.99-20.96-284.92-55.12-321.82-76.37"/>
      <path class="cls-192" d="m481.41,178.15c-140.16-22.27-282.52-57.61-318.28-79.01"/>
      <path class="cls-80" d="m479.56,179.44c-139.26-23.56-279.96-60.05-314.57-81.58"/>
      <path class="cls-220" d="m477.63,180.68c-138.28-24.83-277.25-62.43-310.71-84.08"/>
      <path class="cls-183" d="m475.62,181.89c-137.22-26.07-274.39-64.75-306.69-86.5"/>
      <path class="cls-221" d="m473.54,183.07c-136.09-27.28-271.4-67.01-302.51-88.84"/>
      <path class="cls-98" d="m471.38,184.2c-134.89-28.46-268.26-69.2-298.19-91.1"/>
      <path class="cls-62" d="m469.15,185.29c-133.61-29.61-264.98-71.34-293.72-93.29"/>
      <path class="cls-230" d="m466.84,186.35c-132.26-30.73-261.58-73.4-289.12-95.4"/>
      <path class="cls-17" d="m464.47,187.37c-130.85-31.83-258.04-75.41-284.38-97.44"/>
      <path class="cls-181" d="m462.04,188.34c-129.36-32.89-254.37-77.35-279.5-99.39"/>
      <path class="cls-126" d="m459.54,189.28c-127.81-33.93-250.58-79.22-274.5-101.26"/>
      <path class="cls-142" d="m456.98,190.18c-126.19-34.93-246.68-81.02-269.38-103.05"/>
      <path class="cls-158" d="m454.35,191.03c-124.52-35.9-242.65-82.76-264.13-104.77"/>
      <path class="cls-239" d="m451.68,191.85c-122.78-36.84-238.52-84.43-258.77-106.4"/>
      <path class="cls-165" d="m448.94,192.63c-120.98-37.75-234.27-86.04-253.31-107.95"/>
      <path class="cls-196" d="m446.16,193.36c-119.12-38.63-229.92-87.57-247.73-109.42"/>
      <path class="cls-9" d="m443.32,194.06c-117.2-39.48-225.47-89.04-242.06-110.81"/>
      <path class="cls-171" d="m440.43,194.71c-115.23-40.29-220.92-90.43-236.28-112.11"/>
      <path class="cls-22" d="m437.5,195.32c-113.21-41.07-216.27-91.76-230.42-113.34"/>
      <path class="cls-58" d="m434.53,195.9c-111.14-41.82-211.53-93.02-224.47-114.48"/>
      <path class="cls-11" d="m431.51,196.43c-109.02-42.53-206.71-94.21-218.43-115.54"/>
      <path class="cls-193" d="m428.45,196.92c-106.85-43.22-201.81-95.34-212.32-116.53"/>
      <path class="cls-195" d="m425.36,197.37c-104.63-43.87-196.82-96.39-206.13-117.43"/>
      <path class="cls-203" d="m422.23,197.78c-102.37-44.48-191.76-97.37-199.87-118.24"/>
      <path class="cls-187" d="m419.07,198.15c-100.07-45.07-186.63-98.28-193.54-118.98"/>
      <path class="cls-60" d="m415.88,198.48c-97.72-45.62-181.43-99.13-187.16-119.64"/>
      <path class="cls-48" d="m412.65,198.77c-95.34-46.13-176.17-99.9-180.72-120.22"/>
      <path class="cls-194" d="m409.41,199.02c-92.92-46.61-170.85-100.61-174.22-120.71"/>
      <path class="cls-112" d="m406.14,199.23c-90.47-47.06-165.47-101.24-167.68-121.13"/>
      <path class="cls-161" d="m402.85,199.4c-87.98-47.48-160.04-101.81-161.1-121.47"/>
      <path class="cls-67" d="m399.54,199.53c-85.47-47.86-154.56-102.31-154.48-121.73"/>
      <path class="cls-180" d="m396.21,199.62c-82.92-48.21-149.03-102.74-147.82-121.92"/>
      <path class="cls-179" d="m392.87,199.67c-80.34-48.53-143.47-103.11-141.13-122.02"/>
      <path class="cls-238" d="m389.51,199.69c-77.74-48.81-137.87-103.4-134.42-122.05"/>
      <path class="cls-223" d="m386.15,199.67c-75.12-49.07-132.23-103.63-127.69-122"/>
      <path class="cls-55" d="m382.77,199.61c-72.47-49.28-126.57-103.8-120.94-121.88"/>
      <path class="cls-52" d="m379.39,199.51c-69.81-49.47-120.88-103.9-114.19-121.69"/>
      <path class="cls-24" d="m376.01,199.38c-67.12-49.62-115.16-103.93-107.42-121.42"/>
      <path class="cls-53" d="m372.62,199.21c-64.42-49.74-109.43-103.9-100.65-121.08"/>
      <path class="cls-95" d="m369.24,199c-61.7-49.83-103.69-103.8-93.88-120.66"/>
      <path class="cls-8" d="m365.86,198.76c-58.97-49.89-97.94-103.64-87.11-120.18"/>
      <path class="cls-79" d="m362.48,198.48c-56.23-49.92-92.17-103.42-80.36-119.63"/>
      <path class="cls-211" d="m359.11,198.17c-53.48-49.91-86.41-103.14-73.62-119"/>
      <path class="cls-176" d="m355.74,197.83c-50.73-49.88-80.64-102.8-66.89-118.31"/>
      <path class="cls-72" d="m352.39,197.45c-47.96-49.81-74.88-102.39-60.19-117.56"/>
      <path class="cls-155" d="m349.05,197.04c-45.2-49.72-69.13-101.93-53.51-116.73"/>
      <path class="cls-78" d="m345.73,196.59c-42.43-49.59-63.39-101.4-46.86-115.85"/>
      <path class="cls-160" d="m342.42,196.12c-39.66-49.43-57.66-100.82-40.24-114.89"/>
      <path class="cls-204" d="m339.13,195.61c-36.89-49.25-51.95-100.18-33.66-113.88"/>
      <path class="cls-38" d="m335.86,195.08c-34.13-49.03-46.26-99.49-27.12-112.81"/>
    </g>
  </g>
</svg>