<svg width="647" height="547" viewBox="0 0 647 547" fill="none" xmlns="http://www.w3.org/2000/svg">
<path d="M186.01 546.871C234.969 282.438 358.078 38.2834 461.272 1" stroke="white" stroke-width="0.42" stroke-miterlimit="10"/>
<path d="M177.542 540.349C234.458 280.37 365.143 42.048 469.738 7.52344" stroke="white" stroke-width="0.42" stroke-miterlimit="10"/>
<path d="M169.246 533.708C234.018 278.321 372.12 45.93 478.025 14.1445" stroke="white" stroke-width="0.42" stroke-miterlimit="10"/>
<path d="M161.129 526.987C233.627 276.27 379.005 49.9095 486.151 20.8828" stroke="white" stroke-width="0.42" stroke-miterlimit="10"/>
<path d="M153.172 520.17C233.306 274.261 385.779 53.9897 494.087 27.7021" stroke="white" stroke-width="0.41" stroke-miterlimit="10"/>
<path d="M145.405 513.253C233.036 272.251 392.465 58.1863 501.853 34.6182" stroke="white" stroke-width="0.41" stroke-miterlimit="10"/>
<path d="M137.819 506.257C232.826 270.28 399.04 62.4433 509.439 41.6143" stroke="white" stroke-width="0.41" stroke-miterlimit="10"/>
<path d="M130.413 499.183C232.676 268.31 405.505 66.8178 516.825 48.6885" stroke="white" stroke-width="0.41" stroke-miterlimit="10"/>
<path d="M123.209 492.05C232.587 266.379 411.862 71.2714 524.042 55.8418" stroke="white" stroke-width="0.41" stroke-miterlimit="10"/>
<path d="M116.183 484.838C232.546 264.448 418.106 75.8043 531.057 63.0547" stroke="white" stroke-width="0.4" stroke-miterlimit="10"/>
<path d="M109.357 477.546C232.567 262.555 424.231 80.4341 537.873 70.3447" stroke="white" stroke-width="0.4" stroke-miterlimit="10"/>
<path d="M102.722 470.216C232.646 260.703 430.236 85.1246 544.498 77.6758" stroke="white" stroke-width="0.4" stroke-miterlimit="10"/>
<path d="M96.2861 462.827C232.776 258.852 436.12 89.8943 550.933 85.0664" stroke="white" stroke-width="0.4" stroke-miterlimit="10"/>
<path d="M90.0615 455.397C232.967 257.039 441.885 94.7219 557.158 92.4951" stroke="white" stroke-width="0.4" stroke-miterlimit="10"/>
<path d="M84.0273 447.909C233.208 255.245 447.52 99.6283 563.184 99.983" stroke="white" stroke-width="0.39" stroke-miterlimit="10"/>
<path d="M78.2021 440.381C233.507 253.492 453.024 104.594 568.998 107.511" stroke="white" stroke-width="0.39" stroke-miterlimit="10"/>
<path d="M72.5771 432.833C233.847 251.756 458.398 109.618 574.612 115.057" stroke="white" stroke-width="0.39" stroke-miterlimit="10"/>
<path d="M67.1641 425.247C234.249 250.043 463.634 114.703 580.018 122.645" stroke="white" stroke-width="0.39" stroke-miterlimit="10"/>
<path d="M61.96 417.66C234.709 248.387 468.738 119.826 585.222 130.231" stroke="white" stroke-width="0.39" stroke-miterlimit="10"/>
<path d="M56.9746 410.035C235.208 246.733 473.701 125.01 590.205 137.858" stroke="white" stroke-width="0.39" stroke-miterlimit="10"/>
<path d="M52.1924 402.408C235.76 245.136 478.536 130.232 594.98 145.504" stroke="white" stroke-width="0.38" stroke-miterlimit="10"/>
<path d="M47.6172 394.762C236.359 243.559 483.218 135.493 599.542 153.149" stroke="white" stroke-width="0.38" stroke-miterlimit="10"/>
<path d="M43.2656 387.117C237.012 242.023 487.764 140.794 603.898 160.796" stroke="white" stroke-width="0.38" stroke-miterlimit="10"/>
<path d="M39.1211 379.47C237.711 240.504 492.166 146.113 608.03 168.44" stroke="white" stroke-width="0.38" stroke-miterlimit="10"/>
<path d="M35.1875 371.824C238.451 239.026 496.409 151.473 611.953 176.066" stroke="white" stroke-width="0.38" stroke-miterlimit="10"/>
<path d="M31.4746 364.198C239.242 237.588 500.523 156.873 615.656 183.693" stroke="white" stroke-width="0.38" stroke-miterlimit="10"/>
<path d="M27.9814 356.592C240.072 236.21 504.486 162.273 619.148 191.32" stroke="white" stroke-width="0.37" stroke-miterlimit="10"/>
<path d="M24.6992 348.985C240.954 234.829 508.299 167.692 622.431 198.906" stroke="white" stroke-width="0.37" stroke-miterlimit="10"/>
<path d="M21.627 341.418C241.875 233.489 511.952 173.13 625.484 206.473" stroke="white" stroke-width="0.37" stroke-miterlimit="10"/>
<path d="M18.7744 333.871C242.835 232.189 515.465 178.589 628.326 214" stroke="white" stroke-width="0.37" stroke-miterlimit="10"/>
<path d="M16.1416 326.362C243.845 230.947 518.827 184.047 630.967 221.507" stroke="white" stroke-width="0.37" stroke-miterlimit="10"/>
<path d="M13.7207 318.895C244.887 229.726 522.04 189.506 633.38 228.977" stroke="white" stroke-width="0.36" stroke-miterlimit="10"/>
<path d="M11.5078 311.466C245.967 228.544 525.092 194.985 635.571 236.406" stroke="white" stroke-width="0.36" stroke-miterlimit="10"/>
<path d="M9.5166 304.096C247.088 227.421 527.995 200.463 637.563 243.816" stroke="white" stroke-width="0.36" stroke-miterlimit="10"/>
<path d="M7.73535 296.745C248.249 226.317 530.747 205.901 639.345 251.126" stroke="white" stroke-width="0.36" stroke-miterlimit="10"/>
<path d="M6.16504 289.474C249.441 225.253 533.34 211.36 640.907 258.398" stroke="white" stroke-width="0.36" stroke-miterlimit="10"/>
<path d="M4.8125 282.263C250.671 224.249 535.781 216.8 642.266 265.631" stroke="white" stroke-width="0.36" stroke-miterlimit="10"/>
<path d="M3.66211 275.088C251.932 223.262 538.063 222.217 643.398 272.783" stroke="white" stroke-width="0.35" stroke-miterlimit="10"/>
<path d="M2.72168 267.993C253.224 222.315 540.195 227.616 644.339 279.856" stroke="white" stroke-width="0.35" stroke-miterlimit="10"/>
<path d="M1.99219 260.979C254.556 221.43 542.178 233.017 645.071 286.892" stroke="white" stroke-width="0.35" stroke-miterlimit="10"/>
<path d="M1.46094 254.022C255.906 220.562 543.998 238.356 645.58 293.828" stroke="white" stroke-width="0.35" stroke-miterlimit="10"/>
<path d="M1.13867 247.165C257.295 219.754 545.678 243.716 645.899 300.725" stroke="white" stroke-width="0.35" stroke-miterlimit="10"/>
<path d="M1 240.366C258.688 218.965 547.17 248.997 646 307.504" stroke="white" stroke-width="0.35" stroke-miterlimit="10"/>
<path d="M1.09961 233.667C260.148 218.257 548.561 254.279 645.929 314.224" stroke="white" stroke-width="0.34" stroke-miterlimit="10"/>
<path d="M1.38086 227.046C261.621 217.547 549.773 259.501 645.65 320.825" stroke="white" stroke-width="0.34" stroke-miterlimit="10"/>
<path d="M1.85059 220.503C263.101 216.897 550.833 264.683 645.159 327.348" stroke="white" stroke-width="0.34" stroke-miterlimit="10"/>
<path d="M2.51953 214.061C264.611 216.268 551.742 269.828 644.487 333.773" stroke="white" stroke-width="0.34" stroke-miterlimit="10"/>
<path d="M3.38184 207.734C266.154 215.715 552.505 274.931 643.618 340.118" stroke="white" stroke-width="0.34" stroke-miterlimit="10"/>
<path d="M4.43262 201.488C267.705 215.184 553.115 279.977 642.557 346.365" stroke="white" stroke-width="0.34" stroke-miterlimit="10"/>
<path d="M5.67383 195.358C269.286 214.71 553.586 284.98 641.316 352.493" stroke="white" stroke-width="0.34" stroke-miterlimit="10"/>
<path d="M7.10449 189.328C270.887 214.256 553.915 289.946 639.885 358.522" stroke="white" stroke-width="0.33" stroke-miterlimit="10"/>
<path d="M8.70605 183.397C272.499 213.843 554.076 294.814 638.274 364.435" stroke="white" stroke-width="0.33" stroke-miterlimit="10"/>
<path d="M10.4971 177.584C274.13 213.488 554.115 299.661 636.482 370.248" stroke="white" stroke-width="0.33" stroke-miterlimit="10"/>
<path d="M12.459 171.89C275.771 213.173 553.996 304.431 634.51 375.943" stroke="white" stroke-width="0.33" stroke-miterlimit="10"/>
<path d="M14.6016 166.312C277.444 212.877 553.746 309.14 632.37 381.52" stroke="white" stroke-width="0.33" stroke-miterlimit="10"/>
<path d="M16.9131 160.854C279.114 212.641 553.356 313.791 630.057 386.998" stroke="white" stroke-width="0.33" stroke-miterlimit="10"/>
<path d="M19.3857 155.494C280.797 212.424 552.816 318.343 627.566 392.319" stroke="white" stroke-width="0.32" stroke-miterlimit="10"/>
<path d="M22.0264 150.292C282.486 212.286 552.144 322.875 624.922 397.541" stroke="white" stroke-width="0.32" stroke-miterlimit="10"/>
<path d="M24.8281 145.188C284.197 212.149 551.333 327.29 622.11 402.625" stroke="white" stroke-width="0.32" stroke-miterlimit="10"/>
<path d="M27.8018 140.222C285.92 212.069 550.403 331.664 619.148 407.59" stroke="white" stroke-width="0.32" stroke-miterlimit="10"/>
<path d="M30.915 135.374C287.632 212.01 549.333 335.92 616.017 412.418" stroke="white" stroke-width="0.32" stroke-miterlimit="10"/>
<path d="M34.1875 130.664C289.363 212.01 548.132 340.137 612.744 417.127" stroke="white" stroke-width="0.32" stroke-miterlimit="10"/>
<path d="M37.6094 126.093C291.094 212.05 546.81 344.256 609.33 421.7" stroke="white" stroke-width="0.32" stroke-miterlimit="10"/>
<path d="M41.1719 121.659C292.835 212.129 545.348 348.315 605.757 426.134" stroke="white" stroke-width="0.31" stroke-miterlimit="10"/>
<path d="M44.875 117.343C294.566 212.226 543.767 352.256 602.044 430.429" stroke="white" stroke-width="0.31" stroke-miterlimit="10"/>
<path d="M48.7188 113.187C296.308 212.386 542.077 356.139 598.192 434.608" stroke="white" stroke-width="0.31" stroke-miterlimit="10"/>
<path d="M52.7021 109.146C298.06 212.562 540.255 359.922 594.219 438.627" stroke="white" stroke-width="0.31" stroke-miterlimit="10"/>
<path d="M56.8047 105.265C299.791 212.78 538.313 363.628 590.105 442.53" stroke="white" stroke-width="0.31" stroke-miterlimit="10"/>
<path d="M61.0391 101.5C301.533 213.015 536.262 367.213 585.862 446.253" stroke="white" stroke-width="0.31" stroke-miterlimit="10"/>
<path d="M65.4023 97.8945C303.274 213.311 534.11 370.741 581.508 449.86" stroke="white" stroke-width="0.31" stroke-miterlimit="10"/>
<path d="M69.875 94.4258C305.005 213.646 531.827 374.169 577.024 453.328" stroke="white" stroke-width="0.3" stroke-miterlimit="10"/>
<path d="M74.4697 91.1143C306.737 214 529.456 377.499 572.431 456.657" stroke="white" stroke-width="0.3" stroke-miterlimit="10"/>
<path d="M79.1729 87.9229C308.458 214.395 526.964 380.732 567.717 459.831" stroke="white" stroke-width="0.3" stroke-miterlimit="10"/>
<path d="M83.9863 84.8887C310.179 214.809 524.381 383.865 562.913 462.846" stroke="white" stroke-width="0.3" stroke-miterlimit="10"/>
<path d="M88.9004 82.0107C311.88 215.281 521.689 386.919 557.989 465.762" stroke="white" stroke-width="0.3" stroke-miterlimit="10"/>
<path d="M93.916 79.252C313.583 215.754 518.909 389.835 552.976 468.481" stroke="white" stroke-width="0.3" stroke-miterlimit="10"/>
<path d="M99.0195 76.6514C315.274 216.267 516.016 392.693 547.861 471.063" stroke="white" stroke-width="0.3" stroke-miterlimit="10"/>
<path d="M104.223 74.207C316.954 216.838 513.052 395.431 542.656 473.526" stroke="white" stroke-width="0.29" stroke-miterlimit="10"/>
<path d="M109.508 71.9023C318.616 217.41 509.981 398.073 537.373 475.832" stroke="white" stroke-width="0.29" stroke-miterlimit="10"/>
<path d="M114.882 69.7344C320.277 218.021 506.838 400.615 531.998 477.98" stroke="white" stroke-width="0.29" stroke-miterlimit="10"/>
<path d="M120.327 67.7246C321.91 218.671 503.596 403.058 526.545 479.99" stroke="white" stroke-width="0.29" stroke-miterlimit="10"/>
<path d="M125.851 65.8525C323.54 219.321 500.282 405.384 521.009 481.842" stroke="white" stroke-width="0.29" stroke-miterlimit="10"/>
<path d="M131.445 64.1377C325.151 220.03 496.89 407.63 515.415 483.576" stroke="white" stroke-width="0.29" stroke-miterlimit="10"/>
<path d="M137.11 62.5615C326.753 220.74 493.418 409.758 509.751 485.133" stroke="white" stroke-width="0.29" stroke-miterlimit="10"/>
<path d="M142.835 61.1436C328.335 221.509 489.875 411.789 504.026 486.572" stroke="white" stroke-width="0.28" stroke-miterlimit="10"/>
<path d="M148.618 59.8418C329.894 222.257 486.27 413.699 498.24 487.832" stroke="white" stroke-width="0.28" stroke-miterlimit="10"/>
<path d="M154.454 58.7197C331.437 223.086 482.589 415.533 492.397 488.996" stroke="white" stroke-width="0.28" stroke-miterlimit="10"/>
<path d="M160.348 57.7129C332.967 223.892 478.844 417.226 486.521 489.98" stroke="white" stroke-width="0.28" stroke-miterlimit="10"/>
<path d="M166.283 56.8672C334.469 224.741 475.042 418.843 480.587 490.829" stroke="white" stroke-width="0.28" stroke-miterlimit="10"/>
<path d="M172.259 56.1572C335.951 225.627 471.18 420.36 474.603 491.537" stroke="white" stroke-width="0.28" stroke-miterlimit="10"/>
<path d="M178.273 55.5859C337.412 226.514 467.266 421.759 468.587 492.109" stroke="white" stroke-width="0.28" stroke-miterlimit="10"/>
<path d="M184.317 55.1523C338.852 227.421 463.292 423.04 462.542 492.523" stroke="white" stroke-width="0.28" stroke-miterlimit="10"/>
<path d="M190.394 54.8564C340.264 228.346 459.27 424.222 456.458 492.818" stroke="white" stroke-width="0.27" stroke-miterlimit="10"/>
<path d="M196.498 54.6982C341.665 229.292 455.207 425.305 450.353 492.955" stroke="white" stroke-width="0.27" stroke-miterlimit="10"/>
<path d="M202.622 54.6797C343.025 230.258 451.092 426.292 444.227 492.957" stroke="white" stroke-width="0.27" stroke-miterlimit="10"/>
<path d="M208.768 54.8174C344.377 231.263 446.94 427.178 438.092 492.858" stroke="white" stroke-width="0.27" stroke-miterlimit="10"/>
<path d="M214.923 55.0537C345.688 232.248 442.757 427.947 431.928 492.582" stroke="white" stroke-width="0.27" stroke-miterlimit="10"/>
<path d="M221.088 55.4473C346.979 233.272 438.533 428.616 425.763 492.187" stroke="white" stroke-width="0.27" stroke-miterlimit="10"/>
<path d="M227.263 55.96C348.25 234.298 434.28 429.188 419.598 491.675" stroke="white" stroke-width="0.27" stroke-miterlimit="10"/>
<path d="M233.438 56.6104C349.492 235.362 429.997 429.641 413.424 491.025" stroke="white" stroke-width="0.27" stroke-miterlimit="10"/>
<path d="M239.611 57.3984C350.701 236.426 425.681 430.035 407.247 490.237" stroke="white" stroke-width="0.26" stroke-miterlimit="10"/>
<path d="M245.777 58.3057C351.883 237.51 421.349 430.292 401.083 489.35" stroke="white" stroke-width="0.26" stroke-miterlimit="10"/>
<path d="M251.933 59.3301C353.044 238.594 416.996 430.469 394.918 488.306" stroke="white" stroke-width="0.26" stroke-miterlimit="10"/>
<path d="M258.077 60.4727C354.165 239.697 412.622 430.528 388.773 487.143" stroke="white" stroke-width="0.26" stroke-miterlimit="10"/>
<path d="M264.203 61.7539C355.257 240.821 408.239 430.509 382.649 485.862" stroke="white" stroke-width="0.26" stroke-miterlimit="10"/>
<path d="M270.316 63.1523C356.336 241.943 403.844 430.39 376.542 484.482" stroke="white" stroke-width="0.26" stroke-miterlimit="10"/>
<path d="M276.401 64.6504C357.367 243.067 399.441 430.154 370.467 482.965" stroke="white" stroke-width="0.26" stroke-miterlimit="10"/>
<path d="M282.458 66.2852C358.379 244.209 395.029 429.857 364.414 481.329" stroke="white" stroke-width="0.26" stroke-miterlimit="10"/>
<path d="M288.481 68.0186C359.349 245.351 390.614 429.443 358.388 479.594" stroke="white" stroke-width="0.25" stroke-miterlimit="10"/>
<path d="M294.468 69.8721C360.291 246.515 386.192 428.951 352.394 477.743" stroke="white" stroke-width="0.25" stroke-miterlimit="10"/>
<path d="M300.42 71.8232C361.199 247.678 381.786 428.341 346.437 475.773" stroke="white" stroke-width="0.25" stroke-miterlimit="10"/>
<path d="M306.336 73.8926C362.081 248.841 377.373 427.671 340.534 473.704" stroke="white" stroke-width="0.25" stroke-miterlimit="10"/>
<path d="M312.201 76.0596C362.932 250.022 372.98 426.902 334.659 471.535" stroke="white" stroke-width="0.25" stroke-miterlimit="10"/>
<path d="M318.025 78.3262C363.752 251.186 368.596 426.035 328.854 469.25" stroke="white" stroke-width="0.25" stroke-miterlimit="10"/>
<path d="M323.79 80.7109C364.533 252.368 364.212 425.109 323.079 466.886" stroke="white" stroke-width="0.25" stroke-miterlimit="10"/>
<path d="M329.506 83.1738C365.285 253.55 359.85 424.065 317.366 464.422" stroke="white" stroke-width="0.25" stroke-miterlimit="10"/>
<path d="M335.159 85.7354C365.994 254.732 355.506 422.961 311.7 461.84" stroke="white" stroke-width="0.24" stroke-miterlimit="10"/>
<path d="M340.764 88.3955C366.685 255.915 351.193 421.759 306.116 459.18" stroke="white" stroke-width="0.24" stroke-miterlimit="10"/>
<path d="M346.297 91.1348C367.334 257.097 346.887 420.478 300.58 456.441" stroke="white" stroke-width="0.24" stroke-miterlimit="10"/>
<path d="M351.762 93.9727C367.945 258.28 342.605 419.138 295.106 453.604" stroke="white" stroke-width="0.24" stroke-miterlimit="10"/>
<path d="M357.167 96.8887C368.536 259.462 338.372 417.699 289.713 450.687" stroke="white" stroke-width="0.24" stroke-miterlimit="10"/>
<path d="M362.501 99.9033C369.096 260.663 334.158 416.201 284.388 447.691" stroke="white" stroke-width="0.24" stroke-miterlimit="10"/>
<path d="M367.756 102.979C369.608 261.827 329.976 414.626 279.135 444.598" stroke="white" stroke-width="0.24" stroke-miterlimit="10"/>
<path d="M372.93 106.131C370.088 262.989 325.822 412.97 273.95 441.425" stroke="white" stroke-width="0.24" stroke-miterlimit="10"/>
<path d="M378.034 109.363C370.548 264.152 321.708 411.237 268.846 438.194" stroke="white" stroke-width="0.24" stroke-miterlimit="10"/>
<path d="M383.058 112.673C370.968 265.334 317.645 409.442 263.842 434.902" stroke="white" stroke-width="0.23" stroke-miterlimit="10"/>
<path d="M387.993 116.043C371.349 266.477 313.613 407.59 258.898 431.513" stroke="white" stroke-width="0.23" stroke-miterlimit="10"/>
<path d="M392.846 119.472C371.709 267.62 309.629 405.659 254.054 428.065" stroke="white" stroke-width="0.23" stroke-miterlimit="10"/>
<path d="M397.609 122.979C372.029 268.783 305.695 403.669 249.3 424.577" stroke="white" stroke-width="0.23" stroke-miterlimit="10"/>
<path d="M402.273 126.546C372.309 269.925 301.792 401.619 244.616 421.01" stroke="white" stroke-width="0.23" stroke-miterlimit="10"/>
<path d="M406.857 130.172C372.56 271.049 297.95 399.511 240.043 417.404" stroke="white" stroke-width="0.23" stroke-miterlimit="10"/>
<path d="M411.34 133.838C372.779 272.173 294.156 397.344 235.559 413.7" stroke="white" stroke-width="0.23" stroke-miterlimit="10"/>
<path d="M415.734 137.582C372.969 273.296 290.423 395.137 231.175 409.995" stroke="white" stroke-width="0.23" stroke-miterlimit="10"/>
<path d="M420.027 141.346C373.13 274.38 286.74 392.831 226.892 406.192" stroke="white" stroke-width="0.23" stroke-miterlimit="10"/>
<path d="M424.22 145.168C373.249 275.463 283.116 390.505 222.697 402.368" stroke="white" stroke-width="0.23" stroke-miterlimit="10"/>
<path d="M428.315 149.049C373.351 276.565 279.555 388.139 218.616 398.505" stroke="white" stroke-width="0.22" stroke-miterlimit="10"/>
<path d="M432.299 152.951C373.401 277.61 276.053 385.696 214.623 394.604" stroke="white" stroke-width="0.22" stroke-miterlimit="10"/>
<path d="M436.182 156.893C373.431 278.674 272.6 383.214 210.75 390.643" stroke="white" stroke-width="0.22" stroke-miterlimit="10"/>
<path d="M439.963 160.894C373.44 279.72 269.226 380.712 206.976 386.663" stroke="white" stroke-width="0.22" stroke-miterlimit="10"/>
<path d="M443.627 164.893C373.391 280.743 265.904 378.129 203.304 382.642" stroke="white" stroke-width="0.22" stroke-miterlimit="10"/>
<path d="M447.19 168.953C373.33 281.769 262.661 375.529 199.74 378.603" stroke="white" stroke-width="0.22" stroke-miterlimit="10"/>
<path d="M450.642 173.032C373.24 282.774 259.478 372.889 196.297 374.524" stroke="white" stroke-width="0.22" stroke-miterlimit="10"/>
<path d="M453.986 177.111C373.12 283.739 256.366 370.189 192.955 370.406" stroke="white" stroke-width="0.22" stroke-miterlimit="10"/>
<path d="M457.218 181.25C372.96 284.725 253.324 367.509 189.732 366.307" stroke="white" stroke-width="0.22" stroke-miterlimit="10"/>
<path d="M460.33 185.388C372.779 285.69 250.351 364.75 186.619 362.169" stroke="white" stroke-width="0.21" stroke-miterlimit="10"/>
<path d="M463.333 189.525C372.57 286.596 247.459 361.951 183.617 357.99" stroke="white" stroke-width="0.21" stroke-miterlimit="10"/>
<path d="M466.225 193.703C372.329 287.542 244.636 359.153 180.734 353.833" stroke="white" stroke-width="0.21" stroke-miterlimit="10"/>
<path d="M468.998 197.881C372.059 288.449 241.894 356.335 177.963 349.655" stroke="white" stroke-width="0.21" stroke-miterlimit="10"/>
<path d="M471.66 202.078C371.77 289.335 239.223 353.478 175.312 345.477" stroke="white" stroke-width="0.21" stroke-miterlimit="10"/>
<path d="M474.202 206.257C371.449 290.204 236.63 350.582 172.769 341.281" stroke="white" stroke-width="0.21" stroke-miterlimit="10"/>
<path d="M476.624 210.453C371.099 291.05 234.108 347.684 170.347 337.083" stroke="white" stroke-width="0.21" stroke-miterlimit="10"/>
<path d="M478.926 214.65C370.718 291.877 231.666 344.768 168.045 332.885" stroke="white" stroke-width="0.21" stroke-miterlimit="10"/>
<path d="M481.116 218.848C370.316 292.705 229.313 341.832 165.852 328.708" stroke="white" stroke-width="0.21" stroke-miterlimit="10"/>
<path d="M483.188 223.025C369.887 293.493 227.032 338.876 163.791 324.491" stroke="white" stroke-width="0.21" stroke-miterlimit="10"/>
<path d="M485.14 227.223C369.437 294.282 224.831 335.92 161.84 320.333" stroke="white" stroke-width="0.21" stroke-miterlimit="10"/>
<path d="M486.981 231.381C368.966 295.011 222.728 332.945 160.008 316.155" stroke="white" stroke-width="0.2" stroke-miterlimit="10"/>
<path d="M488.693 235.539C368.467 295.76 220.687 329.95 158.287 311.998" stroke="white" stroke-width="0.2" stroke-miterlimit="10"/>
<path d="M490.295 239.677C367.947 296.469 218.736 326.954 156.696 307.859" stroke="white" stroke-width="0.2" stroke-miterlimit="10"/>
<path d="M491.776 243.816C367.396 297.18 216.874 323.98 155.225 303.742" stroke="white" stroke-width="0.2" stroke-miterlimit="10"/>
<path d="M493.137 247.914C366.835 297.829 215.083 320.963 153.854 299.622" stroke="white" stroke-width="0.2" stroke-miterlimit="10"/>
<path d="M494.388 251.993C366.244 298.479 213.391 317.968 152.622 295.543" stroke="white" stroke-width="0.2" stroke-miterlimit="10"/>
<path d="M495.518 256.054C365.644 299.111 211.77 314.974 151.501 291.485" stroke="white" stroke-width="0.2" stroke-miterlimit="10"/>
<path d="M496.53 260.092C365.014 299.74 210.239 311.977 150.491 287.463" stroke="white" stroke-width="0.2" stroke-miterlimit="10"/>
<path d="M497.42 264.093C364.363 300.312 208.787 308.983 149.6 283.464" stroke="white" stroke-width="0.2" stroke-miterlimit="10"/>
<path d="M498.201 268.072C363.693 300.902 207.427 306.006 148.819 279.482" stroke="white" stroke-width="0.2" stroke-miterlimit="10"/>
<path d="M498.861 271.995C363.001 301.416 206.145 303.012 148.158 275.542" stroke="white" stroke-width="0.19" stroke-miterlimit="10"/>
<path d="M499.412 275.917C362.301 301.968 204.954 300.056 147.618 271.66" stroke="white" stroke-width="0.19" stroke-miterlimit="10"/>
<path d="M499.842 279.778C361.571 302.459 203.833 297.099 147.178 267.797" stroke="white" stroke-width="0.19" stroke-miterlimit="10"/>
<path d="M500.172 283.602C360.84 302.933 202.822 294.144 146.867 263.955" stroke="white" stroke-width="0.19" stroke-miterlimit="10"/>
<path d="M500.382 287.385C360.089 303.386 201.882 291.227 146.657 260.171" stroke="white" stroke-width="0.19" stroke-miterlimit="10"/>
<path d="M500.473 291.13C359.309 303.82 201.012 288.312 146.558 256.447" stroke="white" stroke-width="0.19" stroke-miterlimit="10"/>
<path d="M500.462 294.814C358.518 304.214 200.24 285.414 146.577 252.742" stroke="white" stroke-width="0.19" stroke-miterlimit="10"/>
<path d="M500.342 298.46C357.717 304.608 199.55 282.537 146.697 249.097" stroke="white" stroke-width="0.19" stroke-miterlimit="10"/>
<path d="M500.112 302.066C356.907 304.983 198.939 279.681 146.938 245.511" stroke="white" stroke-width="0.19" stroke-miterlimit="10"/>
<path d="M499.772 305.613C356.076 305.317 198.419 276.862 147.268 241.963" stroke="white" stroke-width="0.19" stroke-miterlimit="10"/>
<path d="M499.331 309.101C355.235 305.633 197.978 274.045 147.718 238.456" stroke="white" stroke-width="0.19" stroke-miterlimit="10"/>
<path d="M498.791 312.549C354.395 305.948 197.618 271.265 148.278 235.026" stroke="white" stroke-width="0.19" stroke-miterlimit="10"/>
<path d="M498.14 315.918C353.534 306.204 197.338 268.506 148.929 231.637" stroke="white" stroke-width="0.18" stroke-miterlimit="10"/>
<path d="M497.38 319.25C352.653 306.461 197.138 265.788 149.68 228.308" stroke="white" stroke-width="0.18" stroke-miterlimit="10"/>
<path d="M496.529 322.521C351.773 306.677 197.018 263.088 150.53 225.056" stroke="white" stroke-width="0.18" stroke-miterlimit="10"/>
<path d="M495.579 325.732C350.882 306.893 196.978 260.427 151.491 221.843" stroke="white" stroke-width="0.18" stroke-miterlimit="10"/>
<path d="M494.528 328.866C349.981 307.071 197.018 257.787 152.542 218.69" stroke="white" stroke-width="0.18" stroke-miterlimit="10"/>
<path d="M493.387 331.959C349.071 307.248 197.138 255.205 153.693 215.636" stroke="white" stroke-width="0.18" stroke-miterlimit="10"/>
<path d="M492.146 334.974C348.16 307.386 197.339 252.644 154.944 212.621" stroke="white" stroke-width="0.18" stroke-miterlimit="10"/>
<path d="M490.804 337.931C347.229 307.505 197.598 250.142 156.265 209.666" stroke="white" stroke-width="0.18" stroke-miterlimit="10"/>
<path d="M489.384 340.807C346.298 307.583 197.949 247.638 157.696 206.788" stroke="white" stroke-width="0.18" stroke-miterlimit="10"/>
<path d="M487.872 343.626C345.367 307.663 198.368 245.195 159.217 203.971" stroke="white" stroke-width="0.18" stroke-miterlimit="10"/>
<path d="M486.271 346.365C344.426 307.722 198.859 242.791 160.818 201.212" stroke="white" stroke-width="0.18" stroke-miterlimit="10"/>
<path d="M484.58 349.044C343.476 307.741 199.43 240.426 162.5 198.551" stroke="white" stroke-width="0.17" stroke-miterlimit="10"/>
<path d="M482.808 351.647C342.535 307.762 200.06 238.122 164.271 195.951" stroke="white" stroke-width="0.17" stroke-miterlimit="10"/>
<path d="M480.957 354.188C341.584 307.761 200.771 235.854 166.133 193.428" stroke="white" stroke-width="0.17" stroke-miterlimit="10"/>
<path d="M479.025 356.632C340.634 307.702 201.551 233.608 168.064 190.945" stroke="white" stroke-width="0.17" stroke-miterlimit="10"/>
<path d="M477.014 359.016C339.683 307.643 202.402 231.421 170.076 188.561" stroke="white" stroke-width="0.17" stroke-miterlimit="10"/>
<path d="M474.932 361.341C338.732 307.583 203.313 229.292 172.178 186.274" stroke="white" stroke-width="0.17" stroke-miterlimit="10"/>
<path d="M472.771 363.568C337.773 307.485 204.295 227.204 174.341 184.048" stroke="white" stroke-width="0.17" stroke-miterlimit="10"/>
<path d="M470.54 365.715C336.822 307.366 205.346 225.134 176.583 181.88" stroke="white" stroke-width="0.17" stroke-miterlimit="10"/>
<path d="M468.227 367.804C335.861 307.248 206.436 223.163 178.874 179.811" stroke="white" stroke-width="0.17" stroke-miterlimit="10"/>
<path d="M465.855 369.815C334.899 307.092 207.606 221.214 181.245 177.802" stroke="white" stroke-width="0.17" stroke-miterlimit="10"/>
<path d="M463.422 371.726C333.957 306.914 208.847 219.302 183.696 175.87" stroke="white" stroke-width="0.17" stroke-miterlimit="10"/>
<path d="M460.921 373.578C333.008 306.716 210.139 217.469 186.199 174.037" stroke="white" stroke-width="0.17" stroke-miterlimit="10"/>
<path d="M458.359 375.352C332.067 306.519 211.48 215.695 188.762 172.283" stroke="white" stroke-width="0.17" stroke-miterlimit="10"/>
<path d="M455.727 377.027C331.106 306.283 212.881 213.942 191.384 170.569" stroke="white" stroke-width="0.16" stroke-miterlimit="10"/>
<path d="M453.054 378.642C330.175 306.046 214.342 212.266 194.075 168.973" stroke="white" stroke-width="0.16" stroke-miterlimit="10"/>
<path d="M450.312 380.18C329.235 305.791 215.853 210.631 196.798 167.456" stroke="white" stroke-width="0.16" stroke-miterlimit="10"/>
<path d="M447.53 381.618C328.313 305.495 217.424 209.054 199.6 165.997" stroke="white" stroke-width="0.16" stroke-miterlimit="10"/>
<path d="M444.687 382.997C327.392 305.198 219.035 207.536 202.432 164.637" stroke="white" stroke-width="0.16" stroke-miterlimit="10"/>
<path d="M441.797 384.278C326.474 304.884 220.699 206.079 205.326 163.356" stroke="white" stroke-width="0.16" stroke-miterlimit="10"/>
<path d="M438.863 385.479C325.561 304.548 222.418 204.659 208.257 162.134" stroke="white" stroke-width="0.16" stroke-miterlimit="10"/>
<path d="M435.891 386.623C324.662 304.214 224.191 203.32 211.24 161.031" stroke="white" stroke-width="0.16" stroke-miterlimit="10"/>
<path d="M432.869 387.668C323.761 303.859 225.992 202.02 214.263 159.987" stroke="white" stroke-width="0.16" stroke-miterlimit="10"/>
<path d="M429.806 388.634C322.87 303.465 227.833 200.759 217.314 159.002" stroke="white" stroke-width="0.16" stroke-miterlimit="10"/>
<path d="M426.713 389.521C321.999 303.071 229.735 199.576 220.417 158.115" stroke="white" stroke-width="0.16" stroke-miterlimit="10"/>
<path d="M423.581 390.329C321.128 302.677 231.666 198.453 223.55 157.327" stroke="white" stroke-width="0.16" stroke-miterlimit="10"/>
<path d="M420.419 391.056C320.268 302.242 233.638 197.388 226.723 156.597" stroke="white" stroke-width="0.16" stroke-miterlimit="10"/>
<path d="M417.226 391.708C319.427 301.81 235.65 196.364 229.915 155.947" stroke="white" stroke-width="0.15" stroke-miterlimit="10"/>
<path d="M413.993 392.278C318.576 301.375 237.681 195.417 233.127 155.375" stroke="white" stroke-width="0.15" stroke-miterlimit="10"/>
<path d="M410.75 392.772C317.755 300.923 239.762 194.512 236.39 154.903" stroke="white" stroke-width="0.15" stroke-miterlimit="10"/>
<path d="M407.477 393.187C316.934 300.451 241.874 193.685 239.662 154.49" stroke="white" stroke-width="0.15" stroke-miterlimit="10"/>
<path d="M404.185 393.522C316.134 299.959 244.016 192.897 242.955 154.155" stroke="white" stroke-width="0.15" stroke-miterlimit="10"/>
<path d="M400.873 393.776C315.334 299.464 246.189 192.166 246.269 153.897" stroke="white" stroke-width="0.15" stroke-miterlimit="10"/>
<path d="M397.541 393.954C314.554 298.953 248.39 191.497 249.601 153.701" stroke="white" stroke-width="0.15" stroke-miterlimit="10"/>
<path d="M394.197 394.053C313.792 298.421 250.611 190.866 252.953 153.603" stroke="white" stroke-width="0.15" stroke-miterlimit="10"/>
<path d="M390.835 394.091C313.032 297.907 252.854 190.333 256.306 153.582" stroke="white" stroke-width="0.15" stroke-miterlimit="10"/>
<path d="M387.472 394.052C312.291 297.356 255.135 189.841 259.679 153.642" stroke="white" stroke-width="0.15" stroke-miterlimit="10"/>
<path d="M384.089 393.934C311.56 296.824 257.417 189.388 263.051 153.76" stroke="white" stroke-width="0.15" stroke-miterlimit="10"/>
<path d="M380.706 393.737C310.839 296.252 259.728 188.993 266.423 153.937" stroke="white" stroke-width="0.15" stroke-miterlimit="10"/>
<path d="M377.324 393.481C310.149 295.701 262.071 188.678 269.817 154.213" stroke="white" stroke-width="0.15" stroke-miterlimit="10"/>
<path d="M373.931 393.146C309.459 295.129 264.413 188.402 273.2 154.548" stroke="white" stroke-width="0.15" stroke-miterlimit="10"/>
<path d="M370.549 392.732C308.799 294.538 266.775 188.186 276.593 154.962" stroke="white" stroke-width="0.15" stroke-miterlimit="10"/>
<path d="M367.165 392.259C308.148 293.947 269.146 188.028 279.985 155.435" stroke="white" stroke-width="0.14" stroke-miterlimit="10"/>
<path d="M363.784 391.707C307.508 293.336 271.539 187.91 283.359 155.967" stroke="white" stroke-width="0.14" stroke-miterlimit="10"/>
<path d="M360.41 391.096C306.887 292.744 273.93 187.85 286.731 156.597" stroke="white" stroke-width="0.14" stroke-miterlimit="10"/>
<path d="M357.037 390.427C306.266 292.134 276.332 187.851 290.093 157.287" stroke="white" stroke-width="0.14" stroke-miterlimit="10"/>
<path d="M353.684 389.679C305.686 291.524 278.744 187.911 293.446 158.018" stroke="white" stroke-width="0.14" stroke-miterlimit="10"/>
<path d="M350.341 388.87C305.105 290.892 281.155 188.008 296.788 158.844" stroke="white" stroke-width="0.14" stroke-miterlimit="10"/>
<path d="M347.019 387.982C304.554 290.261 283.577 188.165 300.121 159.69" stroke="white" stroke-width="0.14" stroke-miterlimit="10"/>
<path d="M343.707 387.057C304.015 289.651 286.001 188.383 303.435 160.657" stroke="white" stroke-width="0.14" stroke-miterlimit="10"/>
<path d="M340.413 386.051C303.493 289 288.421 188.639 306.726 161.642" stroke="white" stroke-width="0.14" stroke-miterlimit="10"/>
<path d="M337.141 385.008C302.984 288.391 290.844 188.955 309.999 162.707" stroke="white" stroke-width="0.14" stroke-miterlimit="10"/>
</svg>
