<?xml version="1.0" encoding="UTF-8"?>
<svg id="_Слой_2" data-name="Слой 2" xmlns="http://www.w3.org/2000/svg" viewBox="0 0 1715.92 529.16">
  <defs>
    <style>
      .cls-1 {
        fill: #fff;
      }
    </style>
  </defs>
  <g id="_Слой_1-2" data-name="Слой 1">
    <path class="cls-1" d="m1534.58,529.16c-15.05-4.13-30.22-7.84-45.12-12.46-68.64-21.31-136.14-45.95-203.06-72.05-87.38-34.08-174.36-69.18-261.51-103.84-1.48-.59-2.98-1.11-4.73-1.03,123.28,61.39,246.56,122.78,369.84,184.16-.39.77-.77,1.55-1.16,2.32-142.72-69.77-284.33-141.78-426.22-213.22l.46-1.36c1.54.5,3.09.94,4.6,1.5,66.62,24.55,133.08,49.57,199.92,73.51,47.44,16.99,95.31,32.81,144.31,44.85,6.77,1.66,13.7,2.74,20.58,3.91,1.98.34,4.07.05,6.11.05.15-.56.3-1.12.45-1.68-2.21-1.14-4.34-2.49-6.65-3.37-92.05-35.38-184.12-70.74-276.2-106.05-11.18-4.29-22.49-8.23-33.7-12.46-2.73-1.03-5.23-2.63-7.9-3.84-19.97-9.09-41.38-10.22-62.81-11.87-16.24-1.25-32.39-3.84-48.57-5.82-.65-.08-1.31-.06-2.79-.13,1.12,1.95,1.97,3.44,2.82,4.91,14.37,24.83,27.42,50.25,34.74,78.2,3.27,12.47,5.44,25.11,2.69,38-3.12,14.66-13.71,20.02-27.31,13.72-10.42-4.83-18.11-12.92-24.63-22.13-14.87-20.99-23.55-44.68-28.95-69.56-2.82-12.98-4.24-26.27-6.29-39.41-.2-1.29-.4-2.59-.71-4.51-1.21,1.05-2.01,1.72-2.79,2.41-10.18,9.07-20.18,18.36-30.64,27.09-3.47,2.89-7.98,4.81-12.31,6.35-5.57,1.98-8.79-1.17-6.58-6.7,2.19-5.47,4.84-11.24,8.81-15.42,9.83-10.34,20.52-19.88,30.93-29.68,1.67-1.58,3.65-2.84,5.77-4.46-6.66-5.94-13.14-11.55-19.42-17.37-13.26-12.28-24.78-26.04-34.56-41.26-.96-1.49-2.23-2.94-3.68-3.94-59.13-40.38-118.72-80.07-181.72-114.26-15.45-8.38-31.81-15.1-47.85-22.35-2.66-1.2-5.87-1.19-8.83-1.75-.34.51-.67,1.01-1.01,1.52,1.57,2.37,2.73,5.2,4.79,7.02,10.82,9.61,21.38,19.6,32.91,28.31,51.21,38.71,105.81,72.31,160.75,105.36,13.41,8.06,26.95,15.91,40.41,23.87,1.46.87,2.86,1.84,4.29,2.77-.19.39-.37.78-.56,1.17-9.82-2.84-19.63-5.7-29.46-8.51-63.5-18.17-127.16-35.72-191.93-48.87-17.1-3.47-34.46-5.62-51.74-8.17-3.46-.51-7.06-.07-10.59-.07-.19.75-.37,1.5-.56,2.25,2.63,1.37,5.1,3.32,7.9,4.03,66.94,16.86,133.92,33.59,200.89,50.36,2.2.55,4.37,1.19,6.24,2.94-62.16-15.09-124.31-30.18-187.7-45.56,7.1,5.43,65.49,23.56,127.18,39.37,42.58,10.91,85.35,21.08,127.95,32.25-41.54.67-83.09.81-124.61,2.17-41.24,1.34-82.66,1.69-123.21,10.54-.07.84-.13,1.68-.2,2.51,3.83.93,7.63,2.42,11.51,2.71,21.24,1.58,42.48,3.49,63.75,4.11,28.79.83,57.63,1.04,86.43.7,30.46-.37,60.91-1.7,91.36-2.6,1.81-.05,3.62,0,5.84,1.13-30.32,11.95-60.64,23.91-90.96,35.86.12.34.23.69.35,1.03,17.31-4.94,34.62-9.87,51.92-14.81.12.36.25.73.37,1.09-63.07,27.44-126.13,54.87-189.2,82.31.2.48.4.95.6,1.43,72.96-23.87,143.27-54.56,214.26-83.64-101.79,52.91-204.19,104.52-307.05,155.25-.34-.66-.67-1.32-1.01-1.98,62.88-31.71,125.76-63.42,188.64-95.14-.14-.3-.27-.61-.41-.91-1.61.67-3.23,1.3-4.82,2.01-70.51,31.76-141,63.58-213.09,91.65-10.21,3.98-20.66,7.37-31.05,10.89-2.57.87-5.33,1.17-8.01,1.73-.33-.57-.67-1.15-1-1.72,1.68-1.48,3.16-3.33,5.08-4.37,14.47-7.85,28.82-15.99,43.62-23.18,31.25-15.18,62.76-29.84,94.42-44.84-1.73-3.88,1.1-5.98,3.99-7.55,14.6-7.95,29.04-16.26,44.02-23.43,20.54-9.84,41.52-18.76,62.31-28.09,1.58-.71,3.13-1.5,4.38-3.11-10.38,2.84-20.72,5.83-31.14,8.51-75.55,19.44-151.06,38.99-226.7,58.06-15.94,4.02-32.33,6.28-48.55,9.13-3.09.54-6.36.08-9.54.08-.19-.61-.38-1.21-.57-1.82,1.78-1.21,3.41-2.83,5.36-3.55,17.62-6.5,35.11-13.46,53-19.14,95.64-30.36,192.69-55.7,289.76-80.93,13.32-3.46,26.67-6.85,39.94-10.87-6.24,0-12.49-.18-18.73.03-29.78,1.03-59.55,2.6-89.34,3.18-46.79.92-93.6,1.59-140.39,1.65-48.13.06-96.25-1.28-144.17-6.29-12.87-1.34-25.59-4.17-38.37-6.33-.49-.08-1.03-.18-1.42-.45-3.12-2.15-6.21-4.35-9.31-6.54,2.72-2.17,5.45-4.34,8.17-6.52.23-.19.37-.49.86-1.18-11.2-.88-22.11-1.76-33.03-2.6-65.42-5.05-130.78-10.82-195.56-21.45-22.26-3.65-44.13-9.67-66.14-14.79-2.85-.66-5.76-2.02-8.06-3.79C2.13,222.84,0,220.28,0,218.2c0-1.71,2.65-4.17,4.65-4.99,4.44-1.79,9.13-3.45,13.85-3.94,22.34-2.31,44.68-5.36,67.08-5.99,39.78-1.13,79.63-1.64,119.41-.69,52.25,1.25,104.48,3.73,156.67,6.5,47.21,2.51,94.39,5.81,141.54,9.33,41.17,3.08,82.29,6.95,123.43,10.46.96.08,1.94.01,2.98-.48-20.3-4.39-40.61-8.71-60.9-13.17-97.16-21.36-194.32-42.75-290.04-70.04-13.57-3.87-26.81-8.87-40.14-13.55-2.48-.87-6.04-2.25-1.75-5.95-33.94-9.59-68.21-17.27-101.17-29.28.12-.76.24-1.52.36-2.28,3.26.19,6.6-.03,9.76.63,47.56,9.9,95.25,19.21,142.59,30.07,71.82,16.47,143.38,34.05,215.06,51.14.64.15,1.31.16,2.38.29-1.09-4.97,2.31-5.45,5.55-5.13,13.56,1.35,27.25,2.12,40.61,4.61,75.5,14.04,149.32,34.85,223.04,56.02,2.03.58,4.09,1.1,6.53.75-6.22-3.7-12.44-7.4-18.66-11.09-58.55-34.79-116.7-70.23-171.46-110.86-13.73-10.18-26.36-21.88-39.16-33.25-2.28-2.02-4.85-6.92-3.91-8.7,2.03-3.85,6.74-1.85,9.86-.47,16.4,7.25,33.1,14.03,48.85,22.52,57.21,30.86,111.43,66.6,165.27,102.92,4.82,3.25,9.63,6.51,15.27,9.31-2.88-7.34-4.47-15.59-8.86-21.87-27.3-39.02-55.22-77.61-79.48-118.66-4.48-7.58-8.28-15.56-12.11-23.5-1.16-2.41-1.32-5.29-1.94-7.96.41-.42.81-.85,1.22-1.27,2.21.97,4.96,1.41,6.55,3,8.12,8.1,16.42,16.1,23.78,24.87,35.15,41.93,66.09,86.95,96.2,132.56,8.25,12.5,16.27,25.16,24.38,37.76.94,1.46,1.78,2.99,1.71,5.18-.86-1.02-1.72-2.04-2.59-3.06-11.22-13.16-22.26-26.47-33.77-39.37-3.25-3.64-7.69-6.36-11.93-8.91-1.62-.97-4.23-.28-6.39-.35.45,2.06.33,4.53,1.45,6.12,6.4,9.14,13.09,18.07,19.68,27.08.94,1.29,1.8,2.63,1.97,4.83-3.73-2.41-7.45-4.83-11.18-7.24,13.55,22.41,31.83,40.28,52.55,56.75-3,2.33-5.57,4.34-8.16,6.35-12.02,9.32-23.25,19.48-32.36,31.74-2.45,3.3-4.36,7.08-5.99,10.86-.69,1.59-.75,4.45.23,5.46.93.97,3.88.93,5.4.2,4.48-2.14,9.17-4.28,12.91-7.44,9.51-8.06,18.56-16.67,27.78-25.08,1.58-1.44,3.06-2.99,5.36-5.24.62,5.3,1.15,9.8,1.68,14.3,3.77,32.17,11,63.4,27.91,91.42,5.68,9.41,13.3,17.82,20.95,25.81,3.59,3.75,9.09,6.21,14.17,7.88,8.87,2.92,15.66-.82,19.13-9.58,3.83-9.67,3.06-19.64,1.34-29.55-4.46-25.57-15.04-48.86-27.02-71.6-4.47-8.48-9.3-16.78-14.18-25.55,26.29,2.86,52.01,5.66,77.72,8.45.11-.61.22-1.22.33-1.83-4.42-1.52-8.85-3.05-13.27-4.57.04-.31.08-.63.12-.94.82-.13,1.64-.39,2.46-.36,31.46.8,62.91,2.07,94.37,2.22,13.14.06,25.52-4.62,36.19-12.6,8.49-6.35,8.43-14.04.03-20.62-6.49-5.08-13.52-8.76-22.32-8.56-8.8.2-17.63-.6-26.44-1.02-1.55-.07-3.08-.45-4.5-1.22h28.75c.07-.35.14-.7.21-1.05-10.54-1.85-21.07-3.76-31.63-5.53-23.93-4.01-47.84-.53-71.77.15-2.79.08-5.64-2.07-8.43-2.02-7.65.14-15.29.81-22.92,1.45-10.25.86-20.49,1.88-32.3,2.98,31.28-23.71,61.36-46.52,91.45-69.33-.36-.52-.72-1.04-1.08-1.55-19.47,13.1-38.94,26.2-58.41,39.29-.28-.36-.57-.73-.85-1.09,20.85-19.61,41.69-39.21,62.54-58.82-.39-.47-.78-.93-1.16-1.4-31.76,25.7-63.51,51.4-95.27,77.09-.38-.36-.77-.72-1.15-1.08,7.42-8.33,14.59-16.91,22.31-24.95,44.76-46.61,89.65-93.1,134.51-139.62,1.08-1.12,2.26-2.15,3.39-3.23l1.23,1.16c-7.03,7.6-14.07,15.21-21.1,22.81.19.18.38.35.57.53,10.31-9.58,20.39-19.43,30.98-28.69,18.17-15.89,36.62-31.47,55.06-47.06,2.9-2.45,6.25-4.42,9.55-6.35,1.42-.83,3.24-1,4.87-1.47.36.35.72.7,1.09,1.05-1.17,2.39-1.91,5.14-3.57,7.12-11.16,13.23-21.92,26.87-33.92,39.29-26.16,27.07-52.98,53.5-79.54,80.18-.56.57-1.37.89-1.32,2.24,5.58-3.44,11.08-7.01,16.75-10.28,3.3-1.9,6.8-3.54,10.38-4.86,1.53-.56,3.46-.03,5.21,0-.33,1.68-.11,3.83-1.07,4.97-5.15,6.09-10.55,11.97-15.96,17.84-1.96,2.12-4.17,4.01-5.6,6.9,1.59-1.04,3.18-2.09,4.78-3.12,62.98-40.25,125.92-80.56,188.98-120.67,8.55-5.43,17.71-9.9,26.67-14.67,1.93-1.03,4.17-1.48,6.27-2.19.31.44.61.87.92,1.31-1.29,1.5-2.36,3.3-3.91,4.45-21.38,15.89-42.25,32.54-64.35,47.36-73.28,49.15-147.01,97.64-220.57,146.39-2.07,1.37-4.15,2.71-5.81,5.02,1.47-.59,2.95-1.15,4.41-1.79,76.79-33.64,153.81-66.77,232.54-95.64,35.87-13.15,72.47-24.36,108.86-36.06,6.72-2.16,14.02-2.67,21.1-3.5,1.83-.22,3.86,1.2,5.8,1.87-.97,1.95-1.43,4.68-3,5.72-10.53,6.97-20.92,14.28-32.05,20.17-52.24,27.68-106.59,50.84-161.37,72.89-53.07,21.36-106.57,41.65-159.88,62.43-1.31.51-2.56,1.16-4.92,2.23,18.81,0,36.36.31,53.91-.07,28.3-.62,56.58-2.14,84.88-2.45,33.81-.38,67.64-.52,101.44.38,41.11,1.09,82.23,3.01,122.63,11.69,6.63,1.43,13.2,3.54,19.46,6.15,9.31,3.87,10.14,8.04,3.54,15.94,9.2.95,18.08,1.76,26.94,2.81,43.97,5.23,88.07,9.56,131.85,16.06,41.28,6.13,82.36,13.86,123.24,22.29,18.28,3.77,35.9,10.8,53.68,16.78,4.14,1.39,8.04,4.09,11.45,6.91,5.86,4.84,5.44,10.75-1.53,13.78-7.39,3.21-15.32,5.68-23.25,7.09-30.11,5.36-60.6,6.06-91.08,6.29-60.99.46-121.87-2.27-182.65-7.01-47.97-3.74-95.94-7.58-143.81-12.43-51.01-5.17-101.91-11.47-152.83-17.49-26.27-3.11-52.48-6.69-78.95-9.43,6.04,2.08,12.08,4.19,18.13,6.24,74.17,25.22,148.13,51.02,220.53,81.02,21.19,8.78,42.06,18.15,62.11,29.58,12.9,7.35,27.65,11.37,41.37,17.34,43.46,18.91,86.91,37.85,130.18,57.19,10.44,4.67,20.26,10.77,30.17,16.54,2.36,1.37,6.35,2.99,3.35,7.28h-9Zm-538.88-230.8c-.06.6-.13,1.21-.19,1.81,10.53,3.33,20.84,8.2,31.63,9.74,46.13,6.58,92.34,12.71,138.64,18,55.57,6.36,111.18,12.54,166.9,17.27,58.7,4.98,117.52,8.71,176.35,11.93,50.05,2.74,100.2,3.51,150.2-1.13,15.31-1.42,30.46-4.98,45.57-8.11,4.02-.83,9.57-3.03,9.04-7.85-.35-3.24-4.33-7.2-7.67-8.78-10.33-4.88-20.85-9.69-31.78-12.91-56.86-16.74-115.34-25.31-173.91-33.03-39.6-5.21-79.36-9.25-119.05-13.83-11.22-1.29-22.43-2.96-33.15,2.64-2.3,1.2-5.08,1.54-7.67,2.14-36.14,8.42-72.96,12.08-109.87,13.56-52.22,2.1-104.51,2.65-156.77,3.87-4.63.11-9.28.13-13.89.58-12.74,1.25-25.44,3.04-38.2,3.96-8.68.62-17.45.12-26.17.12Zm-269.83-50c-7.53-1.56-15.15-3.14-22.78-4.71-18.41-3.79-36.66-9.04-55.27-11.08-41.85-4.59-83.85-7.94-125.84-11.13-50.46-3.84-100.93-7.7-151.46-10.25-64.82-3.28-129.69-5.87-194.57-7.6-44.26-1.18-88.61-.66-132.74,3.79-12.17,1.23-24.2,4.14-36.2,6.7-2.24.48-4.05,2.99-6.06,4.57,1.85,1.8,3.39,4.33,5.6,5.25,6.74,2.78,13.59,5.5,20.65,7.25,52.51,12.99,106.18,18.49,159.82,23.98,32.62,3.34,65.32,5.89,98,8.59,10.42.86,21.24,2.99,31.27,1.2,30.89-5.52,61.98-8.79,93.21-10.54,39.88-2.24,79.8-3.94,119.73-4.97,36.95-.96,73.93-.82,110.9-1,28.63-.14,57.26-.03,85.73-.03Zm184.17-6.8c3.51-.23,5.77-.36,8.02-.53,14.27-1.11,28.55-2.16,42.81-3.39,5.09-.44,10.48-.41,15.14-2.17,40.46-15.22,80.92-30.47,121.13-46.36,65.28-25.79,130.19-52.47,192.95-84.03,14.24-7.16,27.84-15.62,41.56-23.76,2.85-1.69,4.97-4.61,7.43-6.97-.33-.47-.66-.94-.99-1.4-2.3,0-4.66-.37-6.88.06-9.13,1.78-18.36,3.29-27.29,5.81-54.34,15.33-107.04,35.4-159.2,56.77-63.24,25.9-125.95,53.1-188.9,79.73-1.46.62-2.95,1.17-4.43,1.75.61-1.85,1.64-2.65,2.72-3.35,38.25-24.84,76.83-49.19,114.68-74.63,56.64-38.07,112.81-76.86,169.08-115.48,7.3-5.01,14.01-10.87,20.99-16.34-.24-.38-.49-.75-.73-1.13-2.49,1.2-5.05,2.28-7.46,3.63-9.72,5.46-19.63,10.63-29.03,16.59-53.67,34.08-107.3,68.24-160.76,102.65-16.36,10.53-32.45,21.55-48.12,33.08-12.87,9.46-24.76,20.24-37.41,30-21.22,16.36-42.7,32.38-65.3,49.48Zm-555.24,161.36c.12.44.24.89.36,1.33,1.6,0,3.25.24,4.81-.04,17.34-3.14,34.9-5.42,51.96-9.72,75.3-18.95,150.49-38.36,225.64-57.9,19.13-4.97,38.27-10.23,56.89-16.8,21-7.4,41.41-16.47,62.11-24.73,11.96-4.78,23.99-9.4,35.99-14.09-1.06-.79-1.97-.89-2.88-.87-11.98.37-23.96.77-35.94,1.16-24.92.81-49.85,2.09-74.77,2.27-21.79.16-43.61-.65-65.4-1.49-54.72-2.12-109.43-4.26-164.13-6.86-39.57-1.88-79.09-4.61-118.65-6.7-7.86-.42-15.96-2.68-23.62.99-2.69,1.29-4.98,3.39-7.46,5.12,2.5,1.65,4.81,4.26,7.53,4.78,14.84,2.86,29.7,6.03,44.7,7.57,47.58,4.87,95.38,5.82,143.16,5.95,41.95.11,83.92-.58,125.87-1.63,42.76-1.07,85.5-3,128.25-4.55,1.44-.05,2.89,0,4.34,0-1.37,1.57-2.76,2.08-4.17,2.45-80.35,21.38-160.9,42.04-240.98,64.38-47.22,13.18-93.71,28.98-140.49,43.73-4.51,1.42-8.73,3.75-13.09,5.66Zm986.92,31.53c-3.36,4.67-8.19,3.1-12.2,2.12-22.29-5.43-44.72-10.46-66.66-17.09-86.67-26.18-171.49-57.7-256.15-89.65-5.99-2.26-11.98-4.54-17.97-6.81.96,1.37,2.22,2.01,3.52,2.54,85.64,34.44,171.1,69.36,256.99,103.16,77.67,30.57,155.88,59.78,235.55,84.84,17.25,5.43,35,9.3,52.55,13.77,1.68.43,3.56.06,6.21.06-12.91-13.72-144.03-73.74-201.83-92.94Zm-268.19-142.76c24.12,0,48.44.24,72.75-.05,45.46-.55,90.86-2.59,136.09-7.51,22.67-2.47,45.29-5.4,67.24-11.97,2.03-.61,3.99-1.41,5.99-2.13-88.94-9.06-177.73-14.97-266.69-18.62,1.38,1.42,2.83,2.22,4.23,3.12,14.17,9.02,14.05,20.24-.3,28.8-.86.51-1.71,1.05-2.63,1.43-5.62,2.36-11.26,4.69-16.68,6.93Zm-522.79-12.99c.09-.39.18-.79.27-1.18-1.73-.43-3.59-.6-5.17-1.34-2.12-.99-4.04-2.43-6.04-3.67,1.92-1.34,3.67-3.21,5.8-3.9,3.78-1.21,7.76-1.89,11.7-2.45,38.81-5.46,77.93-6.67,117.02-7.7,34.45-.91,68.93-.89,103.39-1.28.77,0,1.54-.11,2.8-.2-28.81-10.23-95.17-23.47-107.59-21.17,22.37,4.62,43.86,9.07,65.36,13.51-6.02,1.03-11.93,1.04-17.84,1.03-36.63-.11-73.27-.38-109.9-.28-27.97.07-55.94.5-83.91.97-56.27.94-112.47,3.27-168.46,9.24-11.77,1.25-23.46,3.22-35.19,4.86.02.64.04,1.29.05,1.93,75.9,3.88,151.8,7.76,227.7,11.64Zm482.71-40.61c.04.2.09.41.13.61,7.88,1.18,15.84,2,23.62,3.65,7.95,1.68,15.72,4.19,23.59,6.28,1.27.34,2.62.45,3.94.52,11.96.64,23.94,1.05,35.89,1.89,79,5.52,158,11.13,236.99,16.73,3.8.27,9.33-2.87,9.9-6.02.78-4.32-2.88-5.51-5.6-7.28-.69-.45-1.44-.89-2.23-1.11-10.08-2.74-20.04-6.21-30.29-8.01-43.07-7.55-86.68-9.26-130.27-9.83-38.11-.5-76.24.24-114.36.74-17.11.22-34.22,1.2-51.32,1.83ZM1141.18,3.24c-.64-.65-1.29-1.31-1.93-1.96-41.17,29.41-77.4,64.65-113.41,99.94-36.18,35.45-71.01,72.26-106.43,108.47.33.34.66.67.99,1.01,10.9-8.93,21.94-17.67,32.66-26.82,26.32-22.46,56.33-40.35,80.41-65.63,31.94-33.51,64.33-66.59,96.36-100.01,4.31-4.5,7.6-9.98,11.37-15Zm-454.07,26.73c.97,16.39,68.65,123.43,94.71,151.4,3-3.87,6.68-2.96,10.15-.96,3.01,1.73,5.96,3.71,8.53,6.03,7.24,6.53,14.27,13.29,21.39,19.96-1-.93-1.64-2.37-2.52-3.65-22.85-33.14-45.03-66.77-68.82-99.21-16.4-22.36-34.96-43.13-52.74-64.45-2.67-3.2-6.41-5.52-10.69-9.12Zm-2.9,204.25c.04-.23.07-.47.11-.7-1.74-.45-3.47-.93-5.21-1.34-29.65-6.89-59.35-13.55-88.94-20.7-113.64-27.47-227.25-55.12-340.89-82.59-3.79-.92-7.84-.72-11.77-1.04l-.22,1.48c2.24,1.01,4.39,2.3,6.72,2.99,30.6,9.03,60.94,19.21,91.92,26.71,81.31,19.69,162.85,38.38,244.4,57.06,25.76,5.9,51.77,10.71,77.75,15.55,8.57,1.6,17.42,1.75,26.13,2.57Zm48.77,92.75c-1.63.63-3.26,1.25-4.89,1.89-45.24,17.64-90.41,35.45-135.75,52.82-14.24,5.46-29.55,8.42-43.32,14.79-41.5,19.21-82.5,39.49-123.64,59.46-4.26,2.07-8.17,4.84-13.46,8.02,20.38-1.33,297.46-119.55,321.07-136.98Zm-464.87-196.01c-.11.55-.23,1.11-.34,1.66,113.82,27.43,227.64,54.87,341.46,82.3.1-.42.2-.84.3-1.27-18.71-5.83-37.49-11.44-56.1-17.58-12.62-4.17-24.65-10.61-37.52-13.43-75.21-16.49-150.59-32.23-225.93-48.13-7.22-1.52-14.58-2.38-21.88-3.55Zm189.53,36.48c.06-.27.13-.54.19-.82-1.38-.43-2.74-.95-4.14-1.28-64.93-15.28-129.78-30.87-194.81-45.68-36.5-8.31-73.28-15.34-109.95-22.89-2.26-.47-4.62-.46-6.93-.68,1.73,1.61,3.41,2.39,5.16,2.88,40.49,11.3,80.56,23.83,122.26,30.92,54.27,9.23,108.09,21.1,162.09,31.89,8.74,1.75,17.43,3.76,26.14,5.65Zm283.93,142.29l-.19-.9c-18.12,5.33-36.68,9.52-54.26,16.27-24.33,9.33-48.14,20.1-71.75,31.16-19.08,8.94-37.55,19.18-56.24,28.96-1.88.99-3.38,2.73-5.05,4.12.35.6.7,1.2,1.05,1.81,62.15-27.14,124.29-54.27,186.44-81.41Zm207.19-108.69l.37.64c21.38-14.36,43.42-27.87,63.93-43.39,14.35-10.86,26.67-24.43,39.78-36.9,1.4-1.33,2.07-3.43,3.08-5.17-.35-.39-.69-.78-1.04-1.17-4.12,1.93-8.4,3.6-12.34,5.85-15.68,8.9-30.22,19.24-43.13,32.02-16.54,16.38-33.74,32.11-50.65,48.12Zm373.72,223.09c-19.89-13.04-236.1-95.67-248.68-95.43,82.3,31.58,165,63.32,248.68,95.43Zm-271.58-128.96c-.01-.57-.03-1.13-.04-1.7-26.54-.68-53.09-1.37-80.35-2.07,9.93,4.7,19.57,6.48,29.72,5.97,16.88-.85,33.78-1.48,50.67-2.2Zm-248.38-81.95c-6.11-8.33-11.63-15.86-17.16-23.4,2.23,9.97,5.46,19.2,17.16,23.4Z"/>
  </g>
</svg>