<svg width="609" height="400" viewBox="0 0 609 400" fill="none" xmlns="http://www.w3.org/2000/svg">
<mask id="path-1-outside-1_584_1868" maskUnits="userSpaceOnUse" x="-10" y="0" width="619" height="434" fill="black">
<rect fill="white" x="-10" width="619" height="434"/>
<path d="M542.771 432C537.36 428.644 531.905 425.629 526.548 421.875C501.868 404.558 477.598 384.536 453.536 363.326C422.118 335.633 390.843 307.11 359.508 278.945C358.976 278.466 358.436 278.043 357.807 278.108C402.133 327.994 446.46 377.88 490.786 427.758C490.646 428.384 490.509 429.018 490.369 429.643C439.053 372.948 388.136 314.432 337.118 256.379L337.283 255.274C337.837 255.68 338.394 256.038 338.937 256.493C362.891 276.442 386.787 296.774 410.82 316.228C427.878 330.034 445.09 342.889 462.708 352.673C465.142 354.022 467.634 354.9 470.108 355.85C470.82 356.127 471.571 355.891 472.305 355.891C472.359 355.436 472.413 354.981 472.467 354.526C471.672 353.6 470.906 352.502 470.076 351.787C436.978 323.037 403.874 294.303 370.766 265.61C366.746 262.124 362.679 258.922 358.648 255.485C357.667 254.648 356.768 253.348 355.808 252.365C348.628 244.978 340.929 244.06 333.224 242.719C327.385 241.703 321.578 239.599 315.76 237.99C315.527 237.925 315.289 237.941 314.757 237.884C315.16 239.469 315.465 240.679 315.771 241.874C320.938 262.051 325.63 282.708 328.262 305.42C329.438 315.553 330.218 325.825 329.229 336.299C328.108 348.212 324.3 352.567 319.41 347.448C315.663 343.523 312.898 336.949 310.554 329.465C305.207 312.408 302.086 293.158 300.145 272.94C299.131 262.392 298.62 251.593 297.883 240.915C297.811 239.867 297.739 238.81 297.628 237.25C297.193 238.103 296.905 238.648 296.625 239.209C292.964 246.579 289.369 254.128 285.608 261.222C284.36 263.571 282.738 265.131 281.182 266.382C279.179 267.991 278.021 265.431 278.816 260.938C279.603 256.493 280.556 251.804 281.983 248.407C285.518 240.005 289.362 232.253 293.105 224.289C293.705 223.005 294.417 221.981 295.179 220.665C292.785 215.838 290.455 211.279 288.197 206.55C283.429 196.571 279.287 185.39 275.77 173.022C275.425 171.811 274.968 170.633 274.447 169.82C253.186 137.007 231.76 104.754 209.108 76.9713C203.553 70.1616 197.671 64.7009 191.903 58.8095C190.947 57.8343 189.793 57.8425 188.728 57.3874C188.606 57.8018 188.487 58.2081 188.365 58.6226C188.93 60.5485 189.347 62.8481 190.087 64.3271C193.978 72.1363 197.775 80.2542 201.921 87.332C220.334 118.788 239.965 146.092 259.72 172.948C264.541 179.498 269.41 185.877 274.249 192.345C274.774 193.052 275.278 193.841 275.792 194.596C275.723 194.913 275.659 195.23 275.59 195.547C272.06 193.239 268.532 190.915 264.998 188.632C242.166 173.867 219.276 159.605 195.988 148.92C189.839 146.1 183.597 144.353 177.384 142.281C176.14 141.866 174.846 142.224 173.577 142.224C173.508 142.833 173.444 143.443 173.375 144.052C174.321 145.165 175.209 146.75 176.216 147.327C200.285 161.028 224.368 174.622 248.447 188.25C249.238 188.697 250.019 189.217 250.691 190.639C228.341 178.377 205.994 166.114 183.202 153.617C185.755 158.029 206.749 172.762 228.931 185.609C244.241 194.474 259.619 202.739 274.936 211.816C260 212.36 245.06 212.474 230.131 213.579C215.303 214.668 200.41 214.952 185.83 222.144C185.805 222.826 185.784 223.509 185.758 224.183C187.135 224.939 188.502 226.15 189.897 226.386C197.534 227.67 205.171 229.222 212.819 229.725C223.17 230.4 233.54 230.571 243.895 230.294C254.848 229.994 265.796 228.913 276.745 228.181C277.395 228.141 278.046 228.181 278.844 229.1C267.943 238.81 257.041 248.529 246.139 258.24C246.182 258.516 246.222 258.801 246.265 259.077C252.489 255.063 258.713 251.056 264.933 247.042C264.976 247.335 265.023 247.635 265.066 247.928C242.389 270.226 219.715 292.516 197.038 314.814C197.11 315.204 197.182 315.586 197.253 315.976C223.487 296.579 248.767 271.64 274.292 248.009C237.693 291.004 200.874 332.943 163.89 374.167C163.768 373.63 163.649 373.094 163.527 372.558C186.136 346.79 208.745 321.022 231.354 295.246C231.304 295.002 231.257 294.75 231.207 294.507C230.628 295.051 230.045 295.563 229.473 296.14C204.121 321.948 178.776 347.806 152.855 370.616C149.184 373.85 145.427 376.604 141.691 379.465C140.767 380.172 139.774 380.416 138.811 380.871C138.692 380.407 138.57 379.936 138.451 379.473C139.055 378.27 139.587 376.767 140.278 375.922C145.481 369.543 150.64 362.928 155.962 357.086C167.198 344.75 178.528 332.837 189.911 320.648C189.289 317.495 190.307 315.789 191.346 314.513C196.595 308.053 201.787 301.3 207.174 295.474C214.559 287.478 222.103 280.229 229.578 272.647C230.146 272.07 230.703 271.429 231.153 270.12C227.42 272.428 223.703 274.858 219.956 277.036C192.791 292.833 165.641 308.719 138.444 324.216C132.713 327.482 126.82 329.319 120.988 331.635C119.877 332.073 118.701 331.7 117.557 331.7C117.489 331.204 117.421 330.716 117.352 330.221C117.992 329.238 118.578 327.921 119.28 327.336C125.615 322.054 131.904 316.398 138.336 311.783C172.724 287.112 207.62 266.52 242.522 246.018C247.311 243.207 252.111 240.452 256.883 237.185C254.639 237.185 252.392 237.039 250.148 237.21C239.44 238.047 228.736 239.322 218.025 239.794C201.201 240.541 184.37 241.086 167.547 241.134C150.241 241.183 132.939 240.094 115.709 236.023C111.082 234.934 106.508 232.635 101.913 230.879C101.737 230.814 101.543 230.733 101.402 230.514C100.281 228.767 99.1695 226.979 98.0549 225.199C99.0329 223.436 100.015 221.673 100.993 219.901C101.075 219.747 101.126 219.503 101.302 218.942C97.2747 218.227 93.3519 217.512 89.4255 216.829C65.9032 212.726 42.4025 208.037 19.1103 199.399C11.1065 196.433 3.24296 191.541 -4.67092 187.38C-5.69566 186.844 -6.74197 185.739 -7.56896 184.301C-8.23414 183.082 -9 181.001 -9 179.311C-9 177.922 -8.04717 175.923 -7.32805 175.256C-5.73161 173.802 -4.04529 172.453 -2.34817 172.055C5.68436 170.177 13.7169 167.699 21.771 167.187C36.0742 166.269 50.4026 165.854 64.7059 166.626C83.4928 167.642 102.273 169.657 121.038 171.908C138.013 173.948 154.977 176.63 171.93 179.49C186.733 181.993 201.518 185.138 216.31 187.99C216.655 188.055 217.008 187.998 217.382 187.6C210.082 184.032 202.78 180.522 195.484 176.898C160.55 159.54 125.615 142.159 91.1981 119.983C86.3189 116.838 81.5584 112.775 76.7655 108.972C75.8738 108.265 74.5937 107.143 76.1362 104.137C63.9328 96.3439 51.6108 90.103 39.7597 80.3436C39.8029 79.726 39.846 79.1084 39.8891 78.4909C41.0613 78.6452 42.2622 78.4665 43.3984 79.0028C60.499 87.0476 77.6464 94.613 94.6679 103.438C120.491 116.822 146.221 131.107 171.994 144.995C172.225 145.117 172.466 145.125 172.85 145.23C172.458 141.192 173.681 140.802 174.846 141.062C179.721 142.159 184.644 142.784 189.447 144.808C216.594 156.217 243.137 173.127 269.643 190.33C270.373 190.801 271.114 191.224 271.991 190.94C269.755 187.933 267.518 184.926 265.282 181.928C244.23 153.657 223.321 124.858 203.632 91.842C198.695 83.5697 194.154 74.0621 189.552 64.8228C188.732 63.1813 187.808 59.1995 188.146 57.7531C188.876 54.6245 190.569 56.2498 191.691 57.3712C197.588 63.2626 203.592 68.7721 209.256 75.6711C229.826 100.748 249.321 129.791 268.68 159.305C270.413 161.946 272.142 164.595 274.17 166.87C273.135 160.906 272.563 154.202 270.985 149.098C261.169 117.39 251.13 86.0319 242.407 52.6743C240.796 46.5147 239.43 40.0301 238.053 33.578C237.635 31.6196 237.578 29.2793 237.355 27.1096C237.502 26.7683 237.646 26.4189 237.794 26.0776C238.588 26.8658 239.577 27.2234 240.149 28.5154C243.068 35.0976 246.053 41.5984 248.699 48.725C261.338 82.7977 272.462 119.381 283.289 156.444C286.255 166.602 289.139 176.89 292.055 187.129C292.393 188.315 292.695 189.558 292.669 191.338C292.36 190.509 292.051 189.68 291.738 188.851C287.704 178.157 283.734 167.341 279.596 156.859C278.427 153.901 276.831 151.691 275.306 149.618C274.724 148.83 273.785 149.391 273.009 149.334C273.171 151.008 273.127 153.015 273.53 154.307C275.831 161.734 278.237 168.991 280.606 176.313C280.944 177.361 281.253 178.45 281.315 180.238C279.973 178.279 278.636 176.313 277.295 174.354C282.167 192.565 288.739 207.086 296.19 220.47C295.111 222.363 294.187 223.997 293.256 225.63C288.934 233.203 284.896 241.46 281.62 251.422C280.739 254.104 280.053 257.175 279.466 260.247C279.218 261.539 279.197 263.863 279.549 264.684C279.884 265.472 280.944 265.44 281.491 264.846C283.102 263.107 284.788 261.368 286.133 258.801C289.552 252.251 292.806 245.254 296.121 238.42C296.689 237.25 297.221 235.991 298.048 234.162C298.271 238.469 298.462 242.126 298.653 245.783C300.008 271.924 302.608 297.302 308.688 320.071C310.73 327.718 313.47 334.552 316.221 341.045C317.511 344.092 319.489 346.091 321.315 347.448C324.505 349.821 326.946 346.782 328.194 339.663C329.571 331.805 329.294 323.704 328.676 315.651C327.072 294.872 323.268 275.947 318.96 257.468C317.353 250.577 315.616 243.832 313.862 236.706C323.315 239.03 332.562 241.305 341.807 243.572C341.846 243.077 341.886 242.581 341.925 242.085C340.336 240.85 338.743 239.607 337.154 238.372C337.168 238.12 337.183 237.86 337.197 237.608C337.492 237.502 337.787 237.291 338.082 237.315C349.393 237.965 360.702 238.997 372.013 239.119C376.738 239.168 381.189 235.365 385.026 228.88C388.078 223.72 388.057 217.471 385.036 212.124C382.703 207.996 380.175 205.006 377.011 205.168C373.847 205.331 370.672 204.681 367.504 204.34C366.947 204.283 366.397 203.974 365.886 203.348H376.224C376.249 203.064 376.274 202.779 376.299 202.495C372.509 200.992 368.723 199.44 364.926 198.001C356.322 194.743 347.725 197.571 339.121 198.123C338.118 198.188 337.093 196.441 336.09 196.482C333.339 196.595 330.592 197.14 327.849 197.66C324.163 198.359 320.481 199.188 316.235 200.081C327.482 180.815 338.297 162.279 349.117 143.743C348.987 143.321 348.858 142.898 348.728 142.484C341.728 153.129 334.727 163.774 327.726 174.411C327.626 174.119 327.521 173.818 327.421 173.525C334.918 157.59 342.411 141.663 349.908 125.728C349.767 125.346 349.627 124.972 349.49 124.59C338.071 145.474 326.655 166.358 315.235 187.234C315.099 186.942 314.958 186.649 314.822 186.357C317.49 179.587 320.068 172.615 322.844 166.082C338.937 128.206 355.078 90.4281 371.208 52.6255C371.596 51.7154 372.02 50.8784 372.427 50.0008L372.869 50.9434C370.341 57.1192 367.81 63.3032 365.282 69.479C365.351 69.6253 365.419 69.7634 365.487 69.9097C369.194 62.1249 372.819 54.1207 376.626 46.596C383.16 33.6836 389.793 21.0232 396.424 8.3546C397.466 6.36371 398.671 4.76287 399.857 3.19453C400.368 2.52007 401.022 2.38193 401.608 2C401.738 2.28441 401.867 2.56883 402 2.85324C401.58 4.79537 401.314 7.03005 400.717 8.63901C396.704 19.3898 392.835 30.4738 388.521 40.5664C379.114 62.5637 369.471 84.041 359.921 105.721C359.72 106.185 359.429 106.445 359.447 107.542C361.453 104.746 363.431 101.845 365.469 99.188C366.656 97.644 367.914 96.3114 369.201 95.2387C369.752 94.7837 370.446 95.2143 371.075 95.2387C370.956 96.6039 371.035 98.351 370.69 99.2774C368.838 104.226 366.897 109.004 364.952 113.774C364.247 115.497 363.452 117.033 362.938 119.381C363.51 118.536 364.081 117.683 364.657 116.846C387.302 84.1385 409.932 51.3822 432.606 18.7885C435.68 14.376 438.974 10.7437 442.195 6.86753C442.889 6.03054 443.695 5.66486 444.45 5.08791C444.561 5.44546 444.669 5.79488 444.781 6.15243C444.317 7.37134 443.932 8.83404 443.375 9.76854C435.687 22.6809 428.183 36.2108 420.237 48.2537C393.889 88.1934 367.378 127.597 340.929 167.211C340.185 168.325 339.437 169.414 338.84 171.291C339.369 170.811 339.901 170.356 340.426 169.836C368.036 142.5 395.73 115.578 424.038 92.1183C436.935 81.4325 450.095 72.3232 463.179 62.8156C465.595 61.0604 468.22 60.646 470.766 59.9715C471.424 59.7927 472.154 60.9466 472.851 61.4911C472.503 63.0757 472.337 65.2941 471.773 66.1392C467.987 71.8031 464.251 77.7433 460.249 82.5295C441.465 105.023 421.923 123.843 402.227 141.761C383.145 159.118 363.909 175.606 344.741 192.492C344.27 192.906 343.82 193.434 342.972 194.304C349.735 194.304 356.045 194.556 362.355 194.247C372.531 193.743 382.699 192.508 392.875 192.256C405.031 191.947 417.195 191.833 429.348 192.565C444.13 193.451 458.915 195.011 473.441 202.064C475.825 203.226 478.187 204.941 480.438 207.062C483.786 210.207 484.084 213.595 481.711 220.015C485.019 220.787 488.212 221.445 491.397 222.298C507.207 226.548 523.064 230.067 538.805 235.349C553.648 240.33 568.418 246.611 583.117 253.462C589.69 256.525 596.025 262.238 602.418 267.097C603.907 268.227 605.309 270.421 606.535 272.712C608.642 276.645 608.491 281.448 605.985 283.91C603.328 286.519 600.477 288.526 597.625 289.672C586.799 294.027 575.836 294.596 564.877 294.783C542.947 295.157 521.057 292.938 499.203 289.087C481.955 286.047 464.707 282.927 447.495 278.986C429.154 274.785 410.853 269.665 392.544 264.773C383.098 262.246 373.674 259.337 364.157 257.11C366.329 258.801 368.5 260.515 370.676 262.181C397.344 282.675 423.937 303.64 449.969 328.019C457.588 335.153 465.092 342.767 472.301 352.056C476.94 358.028 482.243 361.295 487.176 366.146C502.803 381.513 518.425 396.903 533.983 412.619C537.737 416.414 541.268 421.371 544.831 426.06C545.68 427.173 547.115 428.49 546.036 431.976H542.8L542.771 432ZM349.012 244.45C348.991 244.937 348.966 245.433 348.944 245.921C352.73 248.627 356.437 252.584 360.317 253.836C376.903 259.183 393.518 264.164 410.166 268.462C430.147 273.631 450.142 278.653 470.176 282.496C491.282 286.543 512.432 289.574 533.584 292.191C551.58 294.417 569.612 295.043 587.59 291.272C593.095 290.119 598.542 287.226 603.975 284.682C605.421 284.008 607.416 282.22 607.226 278.303C607.1 275.67 605.669 272.452 604.468 271.168C600.753 267.203 596.971 263.294 593.041 260.678C572.596 247.075 551.569 240.111 530.51 233.837C516.272 229.604 501.976 226.321 487.705 222.599C483.67 221.551 479.64 220.194 475.785 224.744C474.958 225.719 473.959 225.996 473.028 226.483C460.033 233.325 446.794 236.299 433.523 237.502C414.747 239.209 395.945 239.656 377.155 240.647C375.49 240.736 373.818 240.753 372.161 241.118C367.58 242.134 363.013 243.589 358.426 244.336C355.305 244.84 352.151 244.434 349.016 244.434L349.012 244.45ZM251.993 203.819C249.285 202.552 246.545 201.268 243.802 199.992C237.182 196.912 230.62 192.646 223.929 190.988C208.882 187.259 193.78 184.536 178.682 181.944C160.539 178.824 142.392 175.687 124.224 173.615C100.917 170.949 77.5924 168.845 54.2643 167.439C38.3502 166.48 22.4038 166.903 6.53652 170.519C2.16069 171.518 -2.1648 173.883 -6.4795 175.963C-7.28491 176.353 -7.93571 178.393 -8.65842 179.677C-7.99324 181.14 -7.43952 183.195 -6.64489 183.943C-4.22147 186.202 -1.75849 188.412 0.779988 189.834C19.6604 200.39 38.9579 204.86 58.2446 209.321C69.9734 212.035 81.7309 214.107 93.4813 216.301C97.2279 217 101.118 218.731 104.725 217.276C115.831 212.791 127.01 210.133 138.239 208.711C152.578 206.891 166.932 205.51 181.289 204.673C194.575 203.893 207.871 204.006 221.164 203.86C231.458 203.746 241.752 203.836 251.989 203.836L251.993 203.819ZM318.212 198.294C319.475 198.107 320.287 198.001 321.096 197.863C326.227 196.961 331.362 196.108 336.489 195.108C338.319 194.751 340.257 194.775 341.933 193.345C356.48 180.977 371.028 168.585 385.486 155.672C408.958 134.715 432.297 113.035 454.863 87.3889C459.983 81.5706 464.873 74.696 469.806 68.0813C470.831 66.708 471.593 64.3352 472.477 62.4175C472.359 62.0355 472.24 61.6536 472.121 61.2798C471.294 61.2798 470.446 60.9791 469.648 61.3286C466.365 62.775 463.046 64.002 459.835 66.0498C440.297 78.5071 421.348 94.8162 402.594 112.182C379.855 133.228 357.307 155.331 334.673 176.971C334.148 177.475 333.612 177.922 333.08 178.393C333.3 176.89 333.67 176.24 334.058 175.671C347.811 155.486 361.683 135.699 375.292 115.026C395.658 84.0897 415.854 52.5686 436.086 21.1857C438.711 17.1145 441.124 12.3526 443.634 7.90766C443.547 7.59887 443.457 7.29821 443.371 6.98942C442.476 7.96455 441.555 8.84217 440.689 9.93919C437.194 14.376 433.631 18.5772 430.251 23.4204C410.953 51.1141 391.67 78.8728 372.448 106.835C366.566 115.391 360.781 124.346 355.146 133.716C350.519 141.403 346.244 150.163 341.695 158.094C334.065 171.388 326.342 184.406 318.216 198.302L318.212 198.294ZM118.571 329.416C118.614 329.774 118.658 330.14 118.701 330.497C119.276 330.497 119.869 330.692 120.43 330.465C126.665 327.913 132.979 326.06 139.113 322.566C166.188 307.167 193.223 291.394 220.244 275.516C227.122 271.477 234.004 267.203 240.699 261.864C248.25 255.851 255.588 248.48 263.031 241.768C267.331 237.884 271.657 234.13 275.972 230.319C275.59 229.677 275.263 229.595 274.936 229.612C270.629 229.912 266.321 230.237 262.014 230.554C253.053 231.213 244.09 232.253 235.129 232.399C227.295 232.529 219.449 231.871 211.614 231.188C191.939 229.465 172.268 227.726 152.6 225.614C138.372 224.086 124.162 221.868 109.938 220.169C107.112 219.828 104.2 217.991 101.446 220.974C100.478 222.022 99.6549 223.728 98.7632 225.134C99.6621 226.475 100.493 228.596 101.471 229.018C106.807 231.343 112.15 233.919 117.543 235.17C134.651 239.127 151.838 239.899 169.017 240.005C184.101 240.094 199.191 239.534 214.275 238.68C229.65 237.811 245.017 236.243 260.388 234.983C260.906 234.942 261.427 234.983 261.949 234.983C261.456 236.259 260.956 236.673 260.449 236.974C231.559 254.348 202.597 271.136 173.803 289.29C156.825 300 140.109 312.839 123.289 324.825C121.667 325.979 120.15 327.872 118.582 329.424L118.571 329.416ZM473.427 355.038C472.219 358.833 470.482 357.557 469.04 356.761C461.025 352.348 452.961 348.261 445.072 342.873C413.909 321.599 383.411 295.986 352.971 270.023C350.817 268.186 348.663 266.333 346.51 264.489C346.855 265.602 347.308 266.122 347.775 266.553C378.568 294.539 409.296 322.915 440.178 350.382C468.105 375.223 496.226 398.959 524.872 419.323C531.075 423.736 537.457 426.881 543.767 430.513C544.371 430.862 545.047 430.562 546 430.562C541.358 419.413 494.213 370.64 473.43 355.038H473.427ZM376.997 239.03C385.669 239.03 394.414 239.225 403.155 238.989C419.5 238.542 435.824 236.885 452.087 232.886C460.238 230.879 468.371 228.498 476.264 223.16C476.993 222.664 477.698 222.014 478.417 221.429C446.438 214.066 414.513 209.264 382.527 206.298C383.023 207.452 383.544 208.102 384.048 208.833C389.143 216.163 389.099 225.28 383.94 232.236C383.631 232.651 383.325 233.09 382.994 233.398C380.973 235.316 378.945 237.21 376.997 239.03ZM189.023 228.474C189.056 228.157 189.088 227.832 189.12 227.515C188.498 227.166 187.829 227.028 187.261 226.426C186.499 225.622 185.809 224.452 185.09 223.444C185.78 222.355 186.409 220.835 187.175 220.275C188.534 219.292 189.965 218.739 191.382 218.284C205.336 213.847 219.402 212.864 233.457 212.027C245.844 211.287 258.242 211.304 270.632 210.987C270.909 210.987 271.186 210.897 271.639 210.824C261.28 202.511 237.42 191.752 232.954 193.621C240.997 197.376 248.724 200.992 256.455 204.6C254.29 205.437 252.165 205.445 250.04 205.437C236.87 205.347 223.695 205.128 210.525 205.209C200.468 205.266 190.411 205.615 180.354 205.997C160.122 206.761 139.915 208.655 119.783 213.506C115.551 214.522 111.348 216.122 107.13 217.455C107.137 217.975 107.145 218.503 107.148 219.023C134.439 222.176 161.729 225.329 189.02 228.482L189.023 228.474ZM362.586 195.474C362.6 195.637 362.618 195.807 362.632 195.97C365.466 196.929 368.328 197.595 371.125 198.936C373.984 200.301 376.777 202.341 379.607 204.039C380.064 204.315 380.549 204.405 381.024 204.461C385.324 204.982 389.632 205.315 393.928 205.997C422.333 210.483 450.739 215.042 479.14 219.592C480.506 219.812 482.495 217.26 482.7 214.7C482.98 211.19 481.664 210.223 480.686 208.785C480.438 208.419 480.168 208.061 479.884 207.883C476.26 205.656 472.679 202.836 468.993 201.374C453.507 195.238 437.827 193.849 422.154 193.386C408.451 192.979 394.741 193.581 381.035 193.987C374.883 194.166 368.73 194.962 362.582 195.474H362.586ZM401.321 4.63285C401.091 4.10466 400.857 3.56833 400.627 3.04014C385.824 26.939 372.797 55.5753 359.849 84.2523C346.841 113.059 334.317 142.971 321.582 172.396C321.7 172.672 321.819 172.94 321.938 173.217C325.857 165.96 329.826 158.858 333.681 151.422C343.144 133.171 353.935 118.634 362.593 98.091C374.077 70.8605 385.723 43.9794 397.24 16.822C398.79 13.1652 399.972 8.71215 401.328 4.63285H401.321ZM238.056 26.3539C238.405 39.6725 262.74 126.654 272.11 149.383C273.189 146.238 274.512 146.978 275.759 148.603C276.842 150.009 277.902 151.618 278.826 153.503C281.43 158.809 283.957 164.302 286.517 169.722C286.158 168.967 285.928 167.797 285.611 166.756C277.395 139.827 269.42 112.499 260.867 86.1375C254.97 67.9676 248.296 51.0897 241.903 33.7649C240.943 31.1645 239.599 29.2793 238.06 26.3539H238.056ZM237.013 192.329C237.028 192.142 237.039 191.947 237.053 191.76C236.427 191.395 235.805 191.005 235.18 190.671C224.519 185.073 213.84 179.661 203.201 173.85C162.34 151.528 121.491 129.059 80.6307 106.737C79.268 105.99 77.8118 106.152 76.3987 105.892L76.3196 107.095C77.125 107.915 77.8981 108.964 78.7358 109.524C89.7383 116.862 100.647 125.135 111.786 131.229C141.022 147.229 170.341 162.417 199.663 177.597C208.925 182.391 218.277 186.3 227.618 190.233C230.7 191.533 233.882 191.655 237.013 192.321V192.329ZM254.549 267.699C253.963 268.211 253.377 268.714 252.791 269.234C236.524 283.569 220.283 298.041 203.981 312.156C198.861 316.593 193.356 318.999 188.405 324.175C173.483 339.785 158.741 356.265 143.949 372.493C142.417 374.175 141.011 376.426 139.109 379.01C146.437 377.929 246.064 281.862 254.553 267.699H254.549ZM87.4012 108.419C87.3616 108.866 87.3185 109.321 87.2789 109.768C128.204 132.058 169.129 154.356 210.054 176.646C210.09 176.305 210.126 175.963 210.162 175.614C203.434 170.876 196.682 166.318 189.99 161.328C185.453 157.94 181.127 152.706 176.5 150.415C149.457 137.015 122.354 124.224 95.2647 111.304C92.6687 110.069 90.0224 109.37 87.3976 108.419H87.4012ZM155.548 138.063C155.57 137.844 155.595 137.624 155.617 137.397C155.12 137.047 154.631 136.625 154.128 136.357C130.782 123.94 107.465 111.271 84.0825 99.2368C70.9586 92.484 57.734 86.7713 44.549 80.6361C43.7364 80.2542 42.8879 80.2623 42.0573 80.0836C42.6793 81.3919 43.2834 82.0257 43.9126 82.4239C58.4711 91.6064 72.8786 101.788 87.8722 107.55C107.385 115.05 126.737 124.696 146.153 133.464C149.296 134.886 152.42 136.519 155.552 138.055L155.548 138.063ZM257.638 253.689L257.569 252.958C251.054 257.289 244.381 260.694 238.06 266.179C229.312 273.761 220.751 282.513 212.261 291.5C205.401 298.765 198.76 307.086 192.04 315.033C191.364 315.838 190.825 317.252 190.224 318.381C190.35 318.869 190.476 319.356 190.602 319.852C212.948 297.798 235.291 275.752 257.638 253.697V253.689ZM332.135 165.367L332.268 165.887C339.955 154.218 347.88 143.24 355.254 130.628C360.414 121.803 364.844 110.776 369.557 100.643C370.061 99.5618 370.302 97.8553 370.665 96.4414C370.539 96.1245 370.417 95.8075 370.291 95.4906C368.81 97.059 367.271 98.416 365.854 100.244C360.216 107.477 354.988 115.879 350.346 126.264C344.399 139.575 338.215 152.357 332.135 165.367ZM466.509 346.652C459.357 336.055 381.617 268.909 377.094 269.104C406.685 294.767 436.421 320.559 466.509 346.652ZM368.86 241.858C368.856 241.395 368.849 240.939 368.845 240.476C359.303 239.924 349.757 239.363 339.955 238.794C343.525 242.613 346.992 244.06 350.641 243.645C356.71 242.955 362.787 242.443 368.86 241.858ZM279.553 175.264C277.356 168.495 275.371 162.376 273.383 156.249C274.185 164.351 275.346 171.851 279.553 175.264Z"/>
</mask>
<path d="M542.771 432C537.36 428.644 531.905 425.629 526.548 421.875C501.868 404.558 477.598 384.536 453.536 363.326C422.118 335.633 390.843 307.11 359.508 278.945C358.976 278.466 358.436 278.043 357.807 278.108C402.133 327.994 446.46 377.88 490.786 427.758C490.646 428.384 490.509 429.018 490.369 429.643C439.053 372.948 388.136 314.432 337.118 256.379L337.283 255.274C337.837 255.68 338.394 256.038 338.937 256.493C362.891 276.442 386.787 296.774 410.82 316.228C427.878 330.034 445.09 342.889 462.708 352.673C465.142 354.022 467.634 354.9 470.108 355.85C470.82 356.127 471.571 355.891 472.305 355.891C472.359 355.436 472.413 354.981 472.467 354.526C471.672 353.6 470.906 352.502 470.076 351.787C436.978 323.037 403.874 294.303 370.766 265.61C366.746 262.124 362.679 258.922 358.648 255.485C357.667 254.648 356.768 253.348 355.808 252.365C348.628 244.978 340.929 244.06 333.224 242.719C327.385 241.703 321.578 239.599 315.76 237.99C315.527 237.925 315.289 237.941 314.757 237.884C315.16 239.469 315.465 240.679 315.771 241.874C320.938 262.051 325.63 282.708 328.262 305.42C329.438 315.553 330.218 325.825 329.229 336.299C328.108 348.212 324.3 352.567 319.41 347.448C315.663 343.523 312.898 336.949 310.554 329.465C305.207 312.408 302.086 293.158 300.145 272.94C299.131 262.392 298.62 251.593 297.883 240.915C297.811 239.867 297.739 238.81 297.628 237.25C297.193 238.103 296.905 238.648 296.625 239.209C292.964 246.579 289.369 254.128 285.608 261.222C284.36 263.571 282.738 265.131 281.182 266.382C279.179 267.991 278.021 265.431 278.816 260.938C279.603 256.493 280.556 251.804 281.983 248.407C285.518 240.005 289.362 232.253 293.105 224.289C293.705 223.005 294.417 221.981 295.179 220.665C292.785 215.838 290.455 211.279 288.197 206.55C283.429 196.571 279.287 185.39 275.77 173.022C275.425 171.811 274.968 170.633 274.447 169.82C253.186 137.007 231.76 104.754 209.108 76.9713C203.553 70.1616 197.671 64.7009 191.903 58.8095C190.947 57.8343 189.793 57.8425 188.728 57.3874C188.606 57.8018 188.487 58.2081 188.365 58.6226C188.93 60.5485 189.347 62.8481 190.087 64.3271C193.978 72.1363 197.775 80.2542 201.921 87.332C220.334 118.788 239.965 146.092 259.72 172.948C264.541 179.498 269.41 185.877 274.249 192.345C274.774 193.052 275.278 193.841 275.792 194.596C275.723 194.913 275.659 195.23 275.59 195.547C272.06 193.239 268.532 190.915 264.998 188.632C242.166 173.867 219.276 159.605 195.988 148.92C189.839 146.1 183.597 144.353 177.384 142.281C176.14 141.866 174.846 142.224 173.577 142.224C173.508 142.833 173.444 143.443 173.375 144.052C174.321 145.165 175.209 146.75 176.216 147.327C200.285 161.028 224.368 174.622 248.447 188.25C249.238 188.697 250.019 189.217 250.691 190.639C228.341 178.377 205.994 166.114 183.202 153.617C185.755 158.029 206.749 172.762 228.931 185.609C244.241 194.474 259.619 202.739 274.936 211.816C260 212.36 245.06 212.474 230.131 213.579C215.303 214.668 200.41 214.952 185.83 222.144C185.805 222.826 185.784 223.509 185.758 224.183C187.135 224.939 188.502 226.15 189.897 226.386C197.534 227.67 205.171 229.222 212.819 229.725C223.17 230.4 233.54 230.571 243.895 230.294C254.848 229.994 265.796 228.913 276.745 228.181C277.395 228.141 278.046 228.181 278.844 229.1C267.943 238.81 257.041 248.529 246.139 258.24C246.182 258.516 246.222 258.801 246.265 259.077C252.489 255.063 258.713 251.056 264.933 247.042C264.976 247.335 265.023 247.635 265.066 247.928C242.389 270.226 219.715 292.516 197.038 314.814C197.11 315.204 197.182 315.586 197.253 315.976C223.487 296.579 248.767 271.64 274.292 248.009C237.693 291.004 200.874 332.943 163.89 374.167C163.768 373.63 163.649 373.094 163.527 372.558C186.136 346.79 208.745 321.022 231.354 295.246C231.304 295.002 231.257 294.75 231.207 294.507C230.628 295.051 230.045 295.563 229.473 296.14C204.121 321.948 178.776 347.806 152.855 370.616C149.184 373.85 145.427 376.604 141.691 379.465C140.767 380.172 139.774 380.416 138.811 380.871C138.692 380.407 138.57 379.936 138.451 379.473C139.055 378.27 139.587 376.767 140.278 375.922C145.481 369.543 150.64 362.928 155.962 357.086C167.198 344.75 178.528 332.837 189.911 320.648C189.289 317.495 190.307 315.789 191.346 314.513C196.595 308.053 201.787 301.3 207.174 295.474C214.559 287.478 222.103 280.229 229.578 272.647C230.146 272.07 230.703 271.429 231.153 270.12C227.42 272.428 223.703 274.858 219.956 277.036C192.791 292.833 165.641 308.719 138.444 324.216C132.713 327.482 126.82 329.319 120.988 331.635C119.877 332.073 118.701 331.7 117.557 331.7C117.489 331.204 117.421 330.716 117.352 330.221C117.992 329.238 118.578 327.921 119.28 327.336C125.615 322.054 131.904 316.398 138.336 311.783C172.724 287.112 207.62 266.52 242.522 246.018C247.311 243.207 252.111 240.452 256.883 237.185C254.639 237.185 252.392 237.039 250.148 237.21C239.44 238.047 228.736 239.322 218.025 239.794C201.201 240.541 184.37 241.086 167.547 241.134C150.241 241.183 132.939 240.094 115.709 236.023C111.082 234.934 106.508 232.635 101.913 230.879C101.737 230.814 101.543 230.733 101.402 230.514C100.281 228.767 99.1695 226.979 98.0549 225.199C99.0329 223.436 100.015 221.673 100.993 219.901C101.075 219.747 101.126 219.503 101.302 218.942C97.2747 218.227 93.3519 217.512 89.4255 216.829C65.9032 212.726 42.4025 208.037 19.1103 199.399C11.1065 196.433 3.24296 191.541 -4.67092 187.38C-5.69566 186.844 -6.74197 185.739 -7.56896 184.301C-8.23414 183.082 -9 181.001 -9 179.311C-9 177.922 -8.04717 175.923 -7.32805 175.256C-5.73161 173.802 -4.04529 172.453 -2.34817 172.055C5.68436 170.177 13.7169 167.699 21.771 167.187C36.0742 166.269 50.4026 165.854 64.7059 166.626C83.4928 167.642 102.273 169.657 121.038 171.908C138.013 173.948 154.977 176.63 171.93 179.49C186.733 181.993 201.518 185.138 216.31 187.99C216.655 188.055 217.008 187.998 217.382 187.6C210.082 184.032 202.78 180.522 195.484 176.898C160.55 159.54 125.615 142.159 91.1981 119.983C86.3189 116.838 81.5584 112.775 76.7655 108.972C75.8738 108.265 74.5937 107.143 76.1362 104.137C63.9328 96.3439 51.6108 90.103 39.7597 80.3436C39.8029 79.726 39.846 79.1084 39.8891 78.4909C41.0613 78.6452 42.2622 78.4665 43.3984 79.0028C60.499 87.0476 77.6464 94.613 94.6679 103.438C120.491 116.822 146.221 131.107 171.994 144.995C172.225 145.117 172.466 145.125 172.85 145.23C172.458 141.192 173.681 140.802 174.846 141.062C179.721 142.159 184.644 142.784 189.447 144.808C216.594 156.217 243.137 173.127 269.643 190.33C270.373 190.801 271.114 191.224 271.991 190.94C269.755 187.933 267.518 184.926 265.282 181.928C244.23 153.657 223.321 124.858 203.632 91.842C198.695 83.5697 194.154 74.0621 189.552 64.8228C188.732 63.1813 187.808 59.1995 188.146 57.7531C188.876 54.6245 190.569 56.2498 191.691 57.3712C197.588 63.2626 203.592 68.7721 209.256 75.6711C229.826 100.748 249.321 129.791 268.68 159.305C270.413 161.946 272.142 164.595 274.17 166.87C273.135 160.906 272.563 154.202 270.985 149.098C261.169 117.39 251.13 86.0319 242.407 52.6743C240.796 46.5147 239.43 40.0301 238.053 33.578C237.635 31.6196 237.578 29.2793 237.355 27.1096C237.502 26.7683 237.646 26.4189 237.794 26.0776C238.588 26.8658 239.577 27.2234 240.149 28.5154C243.068 35.0976 246.053 41.5984 248.699 48.725C261.338 82.7977 272.462 119.381 283.289 156.444C286.255 166.602 289.139 176.89 292.055 187.129C292.393 188.315 292.695 189.558 292.669 191.338C292.36 190.509 292.051 189.68 291.738 188.851C287.704 178.157 283.734 167.341 279.596 156.859C278.427 153.901 276.831 151.691 275.306 149.618C274.724 148.83 273.785 149.391 273.009 149.334C273.171 151.008 273.127 153.015 273.53 154.307C275.831 161.734 278.237 168.991 280.606 176.313C280.944 177.361 281.253 178.45 281.315 180.238C279.973 178.279 278.636 176.313 277.295 174.354C282.167 192.565 288.739 207.086 296.19 220.47C295.111 222.363 294.187 223.997 293.256 225.63C288.934 233.203 284.896 241.46 281.62 251.422C280.739 254.104 280.053 257.175 279.466 260.247C279.218 261.539 279.197 263.863 279.549 264.684C279.884 265.472 280.944 265.44 281.491 264.846C283.102 263.107 284.788 261.368 286.133 258.801C289.552 252.251 292.806 245.254 296.121 238.42C296.689 237.25 297.221 235.991 298.048 234.162C298.271 238.469 298.462 242.126 298.653 245.783C300.008 271.924 302.608 297.302 308.688 320.071C310.73 327.718 313.47 334.552 316.221 341.045C317.511 344.092 319.489 346.091 321.315 347.448C324.505 349.821 326.946 346.782 328.194 339.663C329.571 331.805 329.294 323.704 328.676 315.651C327.072 294.872 323.268 275.947 318.96 257.468C317.353 250.577 315.616 243.832 313.862 236.706C323.315 239.03 332.562 241.305 341.807 243.572C341.846 243.077 341.886 242.581 341.925 242.085C340.336 240.85 338.743 239.607 337.154 238.372C337.168 238.12 337.183 237.86 337.197 237.608C337.492 237.502 337.787 237.291 338.082 237.315C349.393 237.965 360.702 238.997 372.013 239.119C376.738 239.168 381.189 235.365 385.026 228.88C388.078 223.72 388.057 217.471 385.036 212.124C382.703 207.996 380.175 205.006 377.011 205.168C373.847 205.331 370.672 204.681 367.504 204.34C366.947 204.283 366.397 203.974 365.886 203.348H376.224C376.249 203.064 376.274 202.779 376.299 202.495C372.509 200.992 368.723 199.44 364.926 198.001C356.322 194.743 347.725 197.571 339.121 198.123C338.118 198.188 337.093 196.441 336.09 196.482C333.339 196.595 330.592 197.14 327.849 197.66C324.163 198.359 320.481 199.188 316.235 200.081C327.482 180.815 338.297 162.279 349.117 143.743C348.987 143.321 348.858 142.898 348.728 142.484C341.728 153.129 334.727 163.774 327.726 174.411C327.626 174.119 327.521 173.818 327.421 173.525C334.918 157.59 342.411 141.663 349.908 125.728C349.767 125.346 349.627 124.972 349.49 124.59C338.071 145.474 326.655 166.358 315.235 187.234C315.099 186.942 314.958 186.649 314.822 186.357C317.49 179.587 320.068 172.615 322.844 166.082C338.937 128.206 355.078 90.4281 371.208 52.6255C371.596 51.7154 372.02 50.8784 372.427 50.0008L372.869 50.9434C370.341 57.1192 367.81 63.3032 365.282 69.479C365.351 69.6253 365.419 69.7634 365.487 69.9097C369.194 62.1249 372.819 54.1207 376.626 46.596C383.16 33.6836 389.793 21.0232 396.424 8.3546C397.466 6.36371 398.671 4.76287 399.857 3.19453C400.368 2.52007 401.022 2.38193 401.608 2C401.738 2.28441 401.867 2.56883 402 2.85324C401.58 4.79537 401.314 7.03005 400.717 8.63901C396.704 19.3898 392.835 30.4738 388.521 40.5664C379.114 62.5637 369.471 84.041 359.921 105.721C359.72 106.185 359.429 106.445 359.447 107.542C361.453 104.746 363.431 101.845 365.469 99.188C366.656 97.644 367.914 96.3114 369.201 95.2387C369.752 94.7837 370.446 95.2143 371.075 95.2387C370.956 96.6039 371.035 98.351 370.69 99.2774C368.838 104.226 366.897 109.004 364.952 113.774C364.247 115.497 363.452 117.033 362.938 119.381C363.51 118.536 364.081 117.683 364.657 116.846C387.302 84.1385 409.932 51.3822 432.606 18.7885C435.68 14.376 438.974 10.7437 442.195 6.86753C442.889 6.03054 443.695 5.66486 444.45 5.08791C444.561 5.44546 444.669 5.79488 444.781 6.15243C444.317 7.37134 443.932 8.83404 443.375 9.76854C435.687 22.6809 428.183 36.2108 420.237 48.2537C393.889 88.1934 367.378 127.597 340.929 167.211C340.185 168.325 339.437 169.414 338.84 171.291C339.369 170.811 339.901 170.356 340.426 169.836C368.036 142.5 395.73 115.578 424.038 92.1183C436.935 81.4325 450.095 72.3232 463.179 62.8156C465.595 61.0604 468.22 60.646 470.766 59.9715C471.424 59.7927 472.154 60.9466 472.851 61.4911C472.503 63.0757 472.337 65.2941 471.773 66.1392C467.987 71.8031 464.251 77.7433 460.249 82.5295C441.465 105.023 421.923 123.843 402.227 141.761C383.145 159.118 363.909 175.606 344.741 192.492C344.27 192.906 343.82 193.434 342.972 194.304C349.735 194.304 356.045 194.556 362.355 194.247C372.531 193.743 382.699 192.508 392.875 192.256C405.031 191.947 417.195 191.833 429.348 192.565C444.13 193.451 458.915 195.011 473.441 202.064C475.825 203.226 478.187 204.941 480.438 207.062C483.786 210.207 484.084 213.595 481.711 220.015C485.019 220.787 488.212 221.445 491.397 222.298C507.207 226.548 523.064 230.067 538.805 235.349C553.648 240.33 568.418 246.611 583.117 253.462C589.69 256.525 596.025 262.238 602.418 267.097C603.907 268.227 605.309 270.421 606.535 272.712C608.642 276.645 608.491 281.448 605.985 283.91C603.328 286.519 600.477 288.526 597.625 289.672C586.799 294.027 575.836 294.596 564.877 294.783C542.947 295.157 521.057 292.938 499.203 289.087C481.955 286.047 464.707 282.927 447.495 278.986C429.154 274.785 410.853 269.665 392.544 264.773C383.098 262.246 373.674 259.337 364.157 257.11C366.329 258.801 368.5 260.515 370.676 262.181C397.344 282.675 423.937 303.64 449.969 328.019C457.588 335.153 465.092 342.767 472.301 352.056C476.94 358.028 482.243 361.295 487.176 366.146C502.803 381.513 518.425 396.903 533.983 412.619C537.737 416.414 541.268 421.371 544.831 426.06C545.68 427.173 547.115 428.49 546.036 431.976H542.8L542.771 432ZM349.012 244.45C348.991 244.937 348.966 245.433 348.944 245.921C352.73 248.627 356.437 252.584 360.317 253.836C376.903 259.183 393.518 264.164 410.166 268.462C430.147 273.631 450.142 278.653 470.176 282.496C491.282 286.543 512.432 289.574 533.584 292.191C551.58 294.417 569.612 295.043 587.59 291.272C593.095 290.119 598.542 287.226 603.975 284.682C605.421 284.008 607.416 282.22 607.226 278.303C607.1 275.67 605.669 272.452 604.468 271.168C600.753 267.203 596.971 263.294 593.041 260.678C572.596 247.075 551.569 240.111 530.51 233.837C516.272 229.604 501.976 226.321 487.705 222.599C483.67 221.551 479.64 220.194 475.785 224.744C474.958 225.719 473.959 225.996 473.028 226.483C460.033 233.325 446.794 236.299 433.523 237.502C414.747 239.209 395.945 239.656 377.155 240.647C375.49 240.736 373.818 240.753 372.161 241.118C367.58 242.134 363.013 243.589 358.426 244.336C355.305 244.84 352.151 244.434 349.016 244.434L349.012 244.45ZM251.993 203.819C249.285 202.552 246.545 201.268 243.802 199.992C237.182 196.912 230.62 192.646 223.929 190.988C208.882 187.259 193.78 184.536 178.682 181.944C160.539 178.824 142.392 175.687 124.224 173.615C100.917 170.949 77.5924 168.845 54.2643 167.439C38.3502 166.48 22.4038 166.903 6.53652 170.519C2.16069 171.518 -2.1648 173.883 -6.4795 175.963C-7.28491 176.353 -7.93571 178.393 -8.65842 179.677C-7.99324 181.14 -7.43952 183.195 -6.64489 183.943C-4.22147 186.202 -1.75849 188.412 0.779988 189.834C19.6604 200.39 38.9579 204.86 58.2446 209.321C69.9734 212.035 81.7309 214.107 93.4813 216.301C97.2279 217 101.118 218.731 104.725 217.276C115.831 212.791 127.01 210.133 138.239 208.711C152.578 206.891 166.932 205.51 181.289 204.673C194.575 203.893 207.871 204.006 221.164 203.86C231.458 203.746 241.752 203.836 251.989 203.836L251.993 203.819ZM318.212 198.294C319.475 198.107 320.287 198.001 321.096 197.863C326.227 196.961 331.362 196.108 336.489 195.108C338.319 194.751 340.257 194.775 341.933 193.345C356.48 180.977 371.028 168.585 385.486 155.672C408.958 134.715 432.297 113.035 454.863 87.3889C459.983 81.5706 464.873 74.696 469.806 68.0813C470.831 66.708 471.593 64.3352 472.477 62.4175C472.359 62.0355 472.24 61.6536 472.121 61.2798C471.294 61.2798 470.446 60.9791 469.648 61.3286C466.365 62.775 463.046 64.002 459.835 66.0498C440.297 78.5071 421.348 94.8162 402.594 112.182C379.855 133.228 357.307 155.331 334.673 176.971C334.148 177.475 333.612 177.922 333.08 178.393C333.3 176.89 333.67 176.24 334.058 175.671C347.811 155.486 361.683 135.699 375.292 115.026C395.658 84.0897 415.854 52.5686 436.086 21.1857C438.711 17.1145 441.124 12.3526 443.634 7.90766C443.547 7.59887 443.457 7.29821 443.371 6.98942C442.476 7.96455 441.555 8.84217 440.689 9.93919C437.194 14.376 433.631 18.5772 430.251 23.4204C410.953 51.1141 391.67 78.8728 372.448 106.835C366.566 115.391 360.781 124.346 355.146 133.716C350.519 141.403 346.244 150.163 341.695 158.094C334.065 171.388 326.342 184.406 318.216 198.302L318.212 198.294ZM118.571 329.416C118.614 329.774 118.658 330.14 118.701 330.497C119.276 330.497 119.869 330.692 120.43 330.465C126.665 327.913 132.979 326.06 139.113 322.566C166.188 307.167 193.223 291.394 220.244 275.516C227.122 271.477 234.004 267.203 240.699 261.864C248.25 255.851 255.588 248.48 263.031 241.768C267.331 237.884 271.657 234.13 275.972 230.319C275.59 229.677 275.263 229.595 274.936 229.612C270.629 229.912 266.321 230.237 262.014 230.554C253.053 231.213 244.09 232.253 235.129 232.399C227.295 232.529 219.449 231.871 211.614 231.188C191.939 229.465 172.268 227.726 152.6 225.614C138.372 224.086 124.162 221.868 109.938 220.169C107.112 219.828 104.2 217.991 101.446 220.974C100.478 222.022 99.6549 223.728 98.7632 225.134C99.6621 226.475 100.493 228.596 101.471 229.018C106.807 231.343 112.15 233.919 117.543 235.17C134.651 239.127 151.838 239.899 169.017 240.005C184.101 240.094 199.191 239.534 214.275 238.68C229.65 237.811 245.017 236.243 260.388 234.983C260.906 234.942 261.427 234.983 261.949 234.983C261.456 236.259 260.956 236.673 260.449 236.974C231.559 254.348 202.597 271.136 173.803 289.29C156.825 300 140.109 312.839 123.289 324.825C121.667 325.979 120.15 327.872 118.582 329.424L118.571 329.416ZM473.427 355.038C472.219 358.833 470.482 357.557 469.04 356.761C461.025 352.348 452.961 348.261 445.072 342.873C413.909 321.599 383.411 295.986 352.971 270.023C350.817 268.186 348.663 266.333 346.51 264.489C346.855 265.602 347.308 266.122 347.775 266.553C378.568 294.539 409.296 322.915 440.178 350.382C468.105 375.223 496.226 398.959 524.872 419.323C531.075 423.736 537.457 426.881 543.767 430.513C544.371 430.862 545.047 430.562 546 430.562C541.358 419.413 494.213 370.64 473.43 355.038H473.427ZM376.997 239.03C385.669 239.03 394.414 239.225 403.155 238.989C419.5 238.542 435.824 236.885 452.087 232.886C460.238 230.879 468.371 228.498 476.264 223.16C476.993 222.664 477.698 222.014 478.417 221.429C446.438 214.066 414.513 209.264 382.527 206.298C383.023 207.452 383.544 208.102 384.048 208.833C389.143 216.163 389.099 225.28 383.94 232.236C383.631 232.651 383.325 233.09 382.994 233.398C380.973 235.316 378.945 237.21 376.997 239.03ZM189.023 228.474C189.056 228.157 189.088 227.832 189.12 227.515C188.498 227.166 187.829 227.028 187.261 226.426C186.499 225.622 185.809 224.452 185.09 223.444C185.78 222.355 186.409 220.835 187.175 220.275C188.534 219.292 189.965 218.739 191.382 218.284C205.336 213.847 219.402 212.864 233.457 212.027C245.844 211.287 258.242 211.304 270.632 210.987C270.909 210.987 271.186 210.897 271.639 210.824C261.28 202.511 237.42 191.752 232.954 193.621C240.997 197.376 248.724 200.992 256.455 204.6C254.29 205.437 252.165 205.445 250.04 205.437C236.87 205.347 223.695 205.128 210.525 205.209C200.468 205.266 190.411 205.615 180.354 205.997C160.122 206.761 139.915 208.655 119.783 213.506C115.551 214.522 111.348 216.122 107.13 217.455C107.137 217.975 107.145 218.503 107.148 219.023C134.439 222.176 161.729 225.329 189.02 228.482L189.023 228.474ZM362.586 195.474C362.6 195.637 362.618 195.807 362.632 195.97C365.466 196.929 368.328 197.595 371.125 198.936C373.984 200.301 376.777 202.341 379.607 204.039C380.064 204.315 380.549 204.405 381.024 204.461C385.324 204.982 389.632 205.315 393.928 205.997C422.333 210.483 450.739 215.042 479.14 219.592C480.506 219.812 482.495 217.26 482.7 214.7C482.98 211.19 481.664 210.223 480.686 208.785C480.438 208.419 480.168 208.061 479.884 207.883C476.26 205.656 472.679 202.836 468.993 201.374C453.507 195.238 437.827 193.849 422.154 193.386C408.451 192.979 394.741 193.581 381.035 193.987C374.883 194.166 368.73 194.962 362.582 195.474H362.586ZM401.321 4.63285C401.091 4.10466 400.857 3.56833 400.627 3.04014C385.824 26.939 372.797 55.5753 359.849 84.2523C346.841 113.059 334.317 142.971 321.582 172.396C321.7 172.672 321.819 172.94 321.938 173.217C325.857 165.96 329.826 158.858 333.681 151.422C343.144 133.171 353.935 118.634 362.593 98.091C374.077 70.8605 385.723 43.9794 397.24 16.822C398.79 13.1652 399.972 8.71215 401.328 4.63285H401.321ZM238.056 26.3539C238.405 39.6725 262.74 126.654 272.11 149.383C273.189 146.238 274.512 146.978 275.759 148.603C276.842 150.009 277.902 151.618 278.826 153.503C281.43 158.809 283.957 164.302 286.517 169.722C286.158 168.967 285.928 167.797 285.611 166.756C277.395 139.827 269.42 112.499 260.867 86.1375C254.97 67.9676 248.296 51.0897 241.903 33.7649C240.943 31.1645 239.599 29.2793 238.06 26.3539H238.056ZM237.013 192.329C237.028 192.142 237.039 191.947 237.053 191.76C236.427 191.395 235.805 191.005 235.18 190.671C224.519 185.073 213.84 179.661 203.201 173.85C162.34 151.528 121.491 129.059 80.6307 106.737C79.268 105.99 77.8118 106.152 76.3987 105.892L76.3196 107.095C77.125 107.915 77.8981 108.964 78.7358 109.524C89.7383 116.862 100.647 125.135 111.786 131.229C141.022 147.229 170.341 162.417 199.663 177.597C208.925 182.391 218.277 186.3 227.618 190.233C230.7 191.533 233.882 191.655 237.013 192.321V192.329ZM254.549 267.699C253.963 268.211 253.377 268.714 252.791 269.234C236.524 283.569 220.283 298.041 203.981 312.156C198.861 316.593 193.356 318.999 188.405 324.175C173.483 339.785 158.741 356.265 143.949 372.493C142.417 374.175 141.011 376.426 139.109 379.01C146.437 377.929 246.064 281.862 254.553 267.699H254.549ZM87.4012 108.419C87.3616 108.866 87.3185 109.321 87.2789 109.768C128.204 132.058 169.129 154.356 210.054 176.646C210.09 176.305 210.126 175.963 210.162 175.614C203.434 170.876 196.682 166.318 189.99 161.328C185.453 157.94 181.127 152.706 176.5 150.415C149.457 137.015 122.354 124.224 95.2647 111.304C92.6687 110.069 90.0224 109.37 87.3976 108.419H87.4012ZM155.548 138.063C155.57 137.844 155.595 137.624 155.617 137.397C155.12 137.047 154.631 136.625 154.128 136.357C130.782 123.94 107.465 111.271 84.0825 99.2368C70.9586 92.484 57.734 86.7713 44.549 80.6361C43.7364 80.2542 42.8879 80.2623 42.0573 80.0836C42.6793 81.3919 43.2834 82.0257 43.9126 82.4239C58.4711 91.6064 72.8786 101.788 87.8722 107.55C107.385 115.05 126.737 124.696 146.153 133.464C149.296 134.886 152.42 136.519 155.552 138.055L155.548 138.063ZM257.638 253.689L257.569 252.958C251.054 257.289 244.381 260.694 238.06 266.179C229.312 273.761 220.751 282.513 212.261 291.5C205.401 298.765 198.76 307.086 192.04 315.033C191.364 315.838 190.825 317.252 190.224 318.381C190.35 318.869 190.476 319.356 190.602 319.852C212.948 297.798 235.291 275.752 257.638 253.697V253.689ZM332.135 165.367L332.268 165.887C339.955 154.218 347.88 143.24 355.254 130.628C360.414 121.803 364.844 110.776 369.557 100.643C370.061 99.5618 370.302 97.8553 370.665 96.4414C370.539 96.1245 370.417 95.8075 370.291 95.4906C368.81 97.059 367.271 98.416 365.854 100.244C360.216 107.477 354.988 115.879 350.346 126.264C344.399 139.575 338.215 152.357 332.135 165.367ZM466.509 346.652C459.357 336.055 381.617 268.909 377.094 269.104C406.685 294.767 436.421 320.559 466.509 346.652ZM368.86 241.858C368.856 241.395 368.849 240.939 368.845 240.476C359.303 239.924 349.757 239.363 339.955 238.794C343.525 242.613 346.992 244.06 350.641 243.645C356.71 242.955 362.787 242.443 368.86 241.858ZM279.553 175.264C277.356 168.495 275.371 162.376 273.383 156.249C274.185 164.351 275.346 171.851 279.553 175.264Z" fill="#5B0000"/>
<path d="M542.771 432C537.36 428.644 531.905 425.629 526.548 421.875C501.868 404.558 477.598 384.536 453.536 363.326C422.118 335.633 390.843 307.11 359.508 278.945C358.976 278.466 358.436 278.043 357.807 278.108C402.133 327.994 446.46 377.88 490.786 427.758C490.646 428.384 490.509 429.018 490.369 429.643C439.053 372.948 388.136 314.432 337.118 256.379L337.283 255.274C337.837 255.68 338.394 256.038 338.937 256.493C362.891 276.442 386.787 296.774 410.82 316.228C427.878 330.034 445.09 342.889 462.708 352.673C465.142 354.022 467.634 354.9 470.108 355.85C470.82 356.127 471.571 355.891 472.305 355.891C472.359 355.436 472.413 354.981 472.467 354.526C471.672 353.6 470.906 352.502 470.076 351.787C436.978 323.037 403.874 294.303 370.766 265.61C366.746 262.124 362.679 258.922 358.648 255.485C357.667 254.648 356.768 253.348 355.808 252.365C348.628 244.978 340.929 244.06 333.224 242.719C327.385 241.703 321.578 239.599 315.76 237.99C315.527 237.925 315.289 237.941 314.757 237.884C315.16 239.469 315.465 240.679 315.771 241.874C320.938 262.051 325.63 282.708 328.262 305.42C329.438 315.553 330.218 325.825 329.229 336.299C328.108 348.212 324.3 352.567 319.41 347.448C315.663 343.523 312.898 336.949 310.554 329.465C305.207 312.408 302.086 293.158 300.145 272.94C299.131 262.392 298.62 251.593 297.883 240.915C297.811 239.867 297.739 238.81 297.628 237.25C297.193 238.103 296.905 238.648 296.625 239.209C292.964 246.579 289.369 254.128 285.608 261.222C284.36 263.571 282.738 265.131 281.182 266.382C279.179 267.991 278.021 265.431 278.816 260.938C279.603 256.493 280.556 251.804 281.983 248.407C285.518 240.005 289.362 232.253 293.105 224.289C293.705 223.005 294.417 221.981 295.179 220.665C292.785 215.838 290.455 211.279 288.197 206.55C283.429 196.571 279.287 185.39 275.77 173.022C275.425 171.811 274.968 170.633 274.447 169.82C253.186 137.007 231.76 104.754 209.108 76.9713C203.553 70.1616 197.671 64.7009 191.903 58.8095C190.947 57.8343 189.793 57.8425 188.728 57.3874C188.606 57.8018 188.487 58.2081 188.365 58.6226C188.93 60.5485 189.347 62.8481 190.087 64.3271C193.978 72.1363 197.775 80.2542 201.921 87.332C220.334 118.788 239.965 146.092 259.72 172.948C264.541 179.498 269.41 185.877 274.249 192.345C274.774 193.052 275.278 193.841 275.792 194.596C275.723 194.913 275.659 195.23 275.59 195.547C272.06 193.239 268.532 190.915 264.998 188.632C242.166 173.867 219.276 159.605 195.988 148.92C189.839 146.1 183.597 144.353 177.384 142.281C176.14 141.866 174.846 142.224 173.577 142.224C173.508 142.833 173.444 143.443 173.375 144.052C174.321 145.165 175.209 146.75 176.216 147.327C200.285 161.028 224.368 174.622 248.447 188.25C249.238 188.697 250.019 189.217 250.691 190.639C228.341 178.377 205.994 166.114 183.202 153.617C185.755 158.029 206.749 172.762 228.931 185.609C244.241 194.474 259.619 202.739 274.936 211.816C260 212.36 245.06 212.474 230.131 213.579C215.303 214.668 200.41 214.952 185.83 222.144C185.805 222.826 185.784 223.509 185.758 224.183C187.135 224.939 188.502 226.15 189.897 226.386C197.534 227.67 205.171 229.222 212.819 229.725C223.17 230.4 233.54 230.571 243.895 230.294C254.848 229.994 265.796 228.913 276.745 228.181C277.395 228.141 278.046 228.181 278.844 229.1C267.943 238.81 257.041 248.529 246.139 258.24C246.182 258.516 246.222 258.801 246.265 259.077C252.489 255.063 258.713 251.056 264.933 247.042C264.976 247.335 265.023 247.635 265.066 247.928C242.389 270.226 219.715 292.516 197.038 314.814C197.11 315.204 197.182 315.586 197.253 315.976C223.487 296.579 248.767 271.64 274.292 248.009C237.693 291.004 200.874 332.943 163.89 374.167C163.768 373.63 163.649 373.094 163.527 372.558C186.136 346.79 208.745 321.022 231.354 295.246C231.304 295.002 231.257 294.75 231.207 294.507C230.628 295.051 230.045 295.563 229.473 296.14C204.121 321.948 178.776 347.806 152.855 370.616C149.184 373.85 145.427 376.604 141.691 379.465C140.767 380.172 139.774 380.416 138.811 380.871C138.692 380.407 138.57 379.936 138.451 379.473C139.055 378.27 139.587 376.767 140.278 375.922C145.481 369.543 150.64 362.928 155.962 357.086C167.198 344.75 178.528 332.837 189.911 320.648C189.289 317.495 190.307 315.789 191.346 314.513C196.595 308.053 201.787 301.3 207.174 295.474C214.559 287.478 222.103 280.229 229.578 272.647C230.146 272.07 230.703 271.429 231.153 270.12C227.42 272.428 223.703 274.858 219.956 277.036C192.791 292.833 165.641 308.719 138.444 324.216C132.713 327.482 126.82 329.319 120.988 331.635C119.877 332.073 118.701 331.7 117.557 331.7C117.489 331.204 117.421 330.716 117.352 330.221C117.992 329.238 118.578 327.921 119.28 327.336C125.615 322.054 131.904 316.398 138.336 311.783C172.724 287.112 207.62 266.52 242.522 246.018C247.311 243.207 252.111 240.452 256.883 237.185C254.639 237.185 252.392 237.039 250.148 237.21C239.44 238.047 228.736 239.322 218.025 239.794C201.201 240.541 184.37 241.086 167.547 241.134C150.241 241.183 132.939 240.094 115.709 236.023C111.082 234.934 106.508 232.635 101.913 230.879C101.737 230.814 101.543 230.733 101.402 230.514C100.281 228.767 99.1695 226.979 98.0549 225.199C99.0329 223.436 100.015 221.673 100.993 219.901C101.075 219.747 101.126 219.503 101.302 218.942C97.2747 218.227 93.3519 217.512 89.4255 216.829C65.9032 212.726 42.4025 208.037 19.1103 199.399C11.1065 196.433 3.24296 191.541 -4.67092 187.38C-5.69566 186.844 -6.74197 185.739 -7.56896 184.301C-8.23414 183.082 -9 181.001 -9 179.311C-9 177.922 -8.04717 175.923 -7.32805 175.256C-5.73161 173.802 -4.04529 172.453 -2.34817 172.055C5.68436 170.177 13.7169 167.699 21.771 167.187C36.0742 166.269 50.4026 165.854 64.7059 166.626C83.4928 167.642 102.273 169.657 121.038 171.908C138.013 173.948 154.977 176.63 171.93 179.49C186.733 181.993 201.518 185.138 216.31 187.99C216.655 188.055 217.008 187.998 217.382 187.6C210.082 184.032 202.78 180.522 195.484 176.898C160.55 159.54 125.615 142.159 91.1981 119.983C86.3189 116.838 81.5584 112.775 76.7655 108.972C75.8738 108.265 74.5937 107.143 76.1362 104.137C63.9328 96.3439 51.6108 90.103 39.7597 80.3436C39.8029 79.726 39.846 79.1084 39.8891 78.4909C41.0613 78.6452 42.2622 78.4665 43.3984 79.0028C60.499 87.0476 77.6464 94.613 94.6679 103.438C120.491 116.822 146.221 131.107 171.994 144.995C172.225 145.117 172.466 145.125 172.85 145.23C172.458 141.192 173.681 140.802 174.846 141.062C179.721 142.159 184.644 142.784 189.447 144.808C216.594 156.217 243.137 173.127 269.643 190.33C270.373 190.801 271.114 191.224 271.991 190.94C269.755 187.933 267.518 184.926 265.282 181.928C244.23 153.657 223.321 124.858 203.632 91.842C198.695 83.5697 194.154 74.0621 189.552 64.8228C188.732 63.1813 187.808 59.1995 188.146 57.7531C188.876 54.6245 190.569 56.2498 191.691 57.3712C197.588 63.2626 203.592 68.7721 209.256 75.6711C229.826 100.748 249.321 129.791 268.68 159.305C270.413 161.946 272.142 164.595 274.17 166.87C273.135 160.906 272.563 154.202 270.985 149.098C261.169 117.39 251.13 86.0319 242.407 52.6743C240.796 46.5147 239.43 40.0301 238.053 33.578C237.635 31.6196 237.578 29.2793 237.355 27.1096C237.502 26.7683 237.646 26.4189 237.794 26.0776C238.588 26.8658 239.577 27.2234 240.149 28.5154C243.068 35.0976 246.053 41.5984 248.699 48.725C261.338 82.7977 272.462 119.381 283.289 156.444C286.255 166.602 289.139 176.89 292.055 187.129C292.393 188.315 292.695 189.558 292.669 191.338C292.36 190.509 292.051 189.68 291.738 188.851C287.704 178.157 283.734 167.341 279.596 156.859C278.427 153.901 276.831 151.691 275.306 149.618C274.724 148.83 273.785 149.391 273.009 149.334C273.171 151.008 273.127 153.015 273.53 154.307C275.831 161.734 278.237 168.991 280.606 176.313C280.944 177.361 281.253 178.45 281.315 180.238C279.973 178.279 278.636 176.313 277.295 174.354C282.167 192.565 288.739 207.086 296.19 220.47C295.111 222.363 294.187 223.997 293.256 225.63C288.934 233.203 284.896 241.46 281.62 251.422C280.739 254.104 280.053 257.175 279.466 260.247C279.218 261.539 279.197 263.863 279.549 264.684C279.884 265.472 280.944 265.44 281.491 264.846C283.102 263.107 284.788 261.368 286.133 258.801C289.552 252.251 292.806 245.254 296.121 238.42C296.689 237.25 297.221 235.991 298.048 234.162C298.271 238.469 298.462 242.126 298.653 245.783C300.008 271.924 302.608 297.302 308.688 320.071C310.73 327.718 313.47 334.552 316.221 341.045C317.511 344.092 319.489 346.091 321.315 347.448C324.505 349.821 326.946 346.782 328.194 339.663C329.571 331.805 329.294 323.704 328.676 315.651C327.072 294.872 323.268 275.947 318.96 257.468C317.353 250.577 315.616 243.832 313.862 236.706C323.315 239.03 332.562 241.305 341.807 243.572C341.846 243.077 341.886 242.581 341.925 242.085C340.336 240.85 338.743 239.607 337.154 238.372C337.168 238.12 337.183 237.86 337.197 237.608C337.492 237.502 337.787 237.291 338.082 237.315C349.393 237.965 360.702 238.997 372.013 239.119C376.738 239.168 381.189 235.365 385.026 228.88C388.078 223.72 388.057 217.471 385.036 212.124C382.703 207.996 380.175 205.006 377.011 205.168C373.847 205.331 370.672 204.681 367.504 204.34C366.947 204.283 366.397 203.974 365.886 203.348H376.224C376.249 203.064 376.274 202.779 376.299 202.495C372.509 200.992 368.723 199.44 364.926 198.001C356.322 194.743 347.725 197.571 339.121 198.123C338.118 198.188 337.093 196.441 336.09 196.482C333.339 196.595 330.592 197.14 327.849 197.66C324.163 198.359 320.481 199.188 316.235 200.081C327.482 180.815 338.297 162.279 349.117 143.743C348.987 143.321 348.858 142.898 348.728 142.484C341.728 153.129 334.727 163.774 327.726 174.411C327.626 174.119 327.521 173.818 327.421 173.525C334.918 157.59 342.411 141.663 349.908 125.728C349.767 125.346 349.627 124.972 349.49 124.59C338.071 145.474 326.655 166.358 315.235 187.234C315.099 186.942 314.958 186.649 314.822 186.357C317.49 179.587 320.068 172.615 322.844 166.082C338.937 128.206 355.078 90.4281 371.208 52.6255C371.596 51.7154 372.02 50.8784 372.427 50.0008L372.869 50.9434C370.341 57.1192 367.81 63.3032 365.282 69.479C365.351 69.6253 365.419 69.7634 365.487 69.9097C369.194 62.1249 372.819 54.1207 376.626 46.596C383.16 33.6836 389.793 21.0232 396.424 8.3546C397.466 6.36371 398.671 4.76287 399.857 3.19453C400.368 2.52007 401.022 2.38193 401.608 2C401.738 2.28441 401.867 2.56883 402 2.85324C401.58 4.79537 401.314 7.03005 400.717 8.63901C396.704 19.3898 392.835 30.4738 388.521 40.5664C379.114 62.5637 369.471 84.041 359.921 105.721C359.72 106.185 359.429 106.445 359.447 107.542C361.453 104.746 363.431 101.845 365.469 99.188C366.656 97.644 367.914 96.3114 369.201 95.2387C369.752 94.7837 370.446 95.2143 371.075 95.2387C370.956 96.6039 371.035 98.351 370.69 99.2774C368.838 104.226 366.897 109.004 364.952 113.774C364.247 115.497 363.452 117.033 362.938 119.381C363.51 118.536 364.081 117.683 364.657 116.846C387.302 84.1385 409.932 51.3822 432.606 18.7885C435.68 14.376 438.974 10.7437 442.195 6.86753C442.889 6.03054 443.695 5.66486 444.45 5.08791C444.561 5.44546 444.669 5.79488 444.781 6.15243C444.317 7.37134 443.932 8.83404 443.375 9.76854C435.687 22.6809 428.183 36.2108 420.237 48.2537C393.889 88.1934 367.378 127.597 340.929 167.211C340.185 168.325 339.437 169.414 338.84 171.291C339.369 170.811 339.901 170.356 340.426 169.836C368.036 142.5 395.73 115.578 424.038 92.1183C436.935 81.4325 450.095 72.3232 463.179 62.8156C465.595 61.0604 468.22 60.646 470.766 59.9715C471.424 59.7927 472.154 60.9466 472.851 61.4911C472.503 63.0757 472.337 65.2941 471.773 66.1392C467.987 71.8031 464.251 77.7433 460.249 82.5295C441.465 105.023 421.923 123.843 402.227 141.761C383.145 159.118 363.909 175.606 344.741 192.492C344.27 192.906 343.82 193.434 342.972 194.304C349.735 194.304 356.045 194.556 362.355 194.247C372.531 193.743 382.699 192.508 392.875 192.256C405.031 191.947 417.195 191.833 429.348 192.565C444.13 193.451 458.915 195.011 473.441 202.064C475.825 203.226 478.187 204.941 480.438 207.062C483.786 210.207 484.084 213.595 481.711 220.015C485.019 220.787 488.212 221.445 491.397 222.298C507.207 226.548 523.064 230.067 538.805 235.349C553.648 240.33 568.418 246.611 583.117 253.462C589.69 256.525 596.025 262.238 602.418 267.097C603.907 268.227 605.309 270.421 606.535 272.712C608.642 276.645 608.491 281.448 605.985 283.91C603.328 286.519 600.477 288.526 597.625 289.672C586.799 294.027 575.836 294.596 564.877 294.783C542.947 295.157 521.057 292.938 499.203 289.087C481.955 286.047 464.707 282.927 447.495 278.986C429.154 274.785 410.853 269.665 392.544 264.773C383.098 262.246 373.674 259.337 364.157 257.11C366.329 258.801 368.5 260.515 370.676 262.181C397.344 282.675 423.937 303.64 449.969 328.019C457.588 335.153 465.092 342.767 472.301 352.056C476.94 358.028 482.243 361.295 487.176 366.146C502.803 381.513 518.425 396.903 533.983 412.619C537.737 416.414 541.268 421.371 544.831 426.06C545.68 427.173 547.115 428.49 546.036 431.976H542.8L542.771 432ZM349.012 244.45C348.991 244.937 348.966 245.433 348.944 245.921C352.73 248.627 356.437 252.584 360.317 253.836C376.903 259.183 393.518 264.164 410.166 268.462C430.147 273.631 450.142 278.653 470.176 282.496C491.282 286.543 512.432 289.574 533.584 292.191C551.58 294.417 569.612 295.043 587.59 291.272C593.095 290.119 598.542 287.226 603.975 284.682C605.421 284.008 607.416 282.22 607.226 278.303C607.1 275.67 605.669 272.452 604.468 271.168C600.753 267.203 596.971 263.294 593.041 260.678C572.596 247.075 551.569 240.111 530.51 233.837C516.272 229.604 501.976 226.321 487.705 222.599C483.67 221.551 479.64 220.194 475.785 224.744C474.958 225.719 473.959 225.996 473.028 226.483C460.033 233.325 446.794 236.299 433.523 237.502C414.747 239.209 395.945 239.656 377.155 240.647C375.49 240.736 373.818 240.753 372.161 241.118C367.58 242.134 363.013 243.589 358.426 244.336C355.305 244.84 352.151 244.434 349.016 244.434L349.012 244.45ZM251.993 203.819C249.285 202.552 246.545 201.268 243.802 199.992C237.182 196.912 230.62 192.646 223.929 190.988C208.882 187.259 193.78 184.536 178.682 181.944C160.539 178.824 142.392 175.687 124.224 173.615C100.917 170.949 77.5924 168.845 54.2643 167.439C38.3502 166.48 22.4038 166.903 6.53652 170.519C2.16069 171.518 -2.1648 173.883 -6.4795 175.963C-7.28491 176.353 -7.93571 178.393 -8.65842 179.677C-7.99324 181.14 -7.43952 183.195 -6.64489 183.943C-4.22147 186.202 -1.75849 188.412 0.779988 189.834C19.6604 200.39 38.9579 204.86 58.2446 209.321C69.9734 212.035 81.7309 214.107 93.4813 216.301C97.2279 217 101.118 218.731 104.725 217.276C115.831 212.791 127.01 210.133 138.239 208.711C152.578 206.891 166.932 205.51 181.289 204.673C194.575 203.893 207.871 204.006 221.164 203.86C231.458 203.746 241.752 203.836 251.989 203.836L251.993 203.819ZM318.212 198.294C319.475 198.107 320.287 198.001 321.096 197.863C326.227 196.961 331.362 196.108 336.489 195.108C338.319 194.751 340.257 194.775 341.933 193.345C356.48 180.977 371.028 168.585 385.486 155.672C408.958 134.715 432.297 113.035 454.863 87.3889C459.983 81.5706 464.873 74.696 469.806 68.0813C470.831 66.708 471.593 64.3352 472.477 62.4175C472.359 62.0355 472.24 61.6536 472.121 61.2798C471.294 61.2798 470.446 60.9791 469.648 61.3286C466.365 62.775 463.046 64.002 459.835 66.0498C440.297 78.5071 421.348 94.8162 402.594 112.182C379.855 133.228 357.307 155.331 334.673 176.971C334.148 177.475 333.612 177.922 333.08 178.393C333.3 176.89 333.67 176.24 334.058 175.671C347.811 155.486 361.683 135.699 375.292 115.026C395.658 84.0897 415.854 52.5686 436.086 21.1857C438.711 17.1145 441.124 12.3526 443.634 7.90766C443.547 7.59887 443.457 7.29821 443.371 6.98942C442.476 7.96455 441.555 8.84217 440.689 9.93919C437.194 14.376 433.631 18.5772 430.251 23.4204C410.953 51.1141 391.67 78.8728 372.448 106.835C366.566 115.391 360.781 124.346 355.146 133.716C350.519 141.403 346.244 150.163 341.695 158.094C334.065 171.388 326.342 184.406 318.216 198.302L318.212 198.294ZM118.571 329.416C118.614 329.774 118.658 330.14 118.701 330.497C119.276 330.497 119.869 330.692 120.43 330.465C126.665 327.913 132.979 326.06 139.113 322.566C166.188 307.167 193.223 291.394 220.244 275.516C227.122 271.477 234.004 267.203 240.699 261.864C248.25 255.851 255.588 248.48 263.031 241.768C267.331 237.884 271.657 234.13 275.972 230.319C275.59 229.677 275.263 229.595 274.936 229.612C270.629 229.912 266.321 230.237 262.014 230.554C253.053 231.213 244.09 232.253 235.129 232.399C227.295 232.529 219.449 231.871 211.614 231.188C191.939 229.465 172.268 227.726 152.6 225.614C138.372 224.086 124.162 221.868 109.938 220.169C107.112 219.828 104.2 217.991 101.446 220.974C100.478 222.022 99.6549 223.728 98.7632 225.134C99.6621 226.475 100.493 228.596 101.471 229.018C106.807 231.343 112.15 233.919 117.543 235.17C134.651 239.127 151.838 239.899 169.017 240.005C184.101 240.094 199.191 239.534 214.275 238.68C229.65 237.811 245.017 236.243 260.388 234.983C260.906 234.942 261.427 234.983 261.949 234.983C261.456 236.259 260.956 236.673 260.449 236.974C231.559 254.348 202.597 271.136 173.803 289.29C156.825 300 140.109 312.839 123.289 324.825C121.667 325.979 120.15 327.872 118.582 329.424L118.571 329.416ZM473.427 355.038C472.219 358.833 470.482 357.557 469.04 356.761C461.025 352.348 452.961 348.261 445.072 342.873C413.909 321.599 383.411 295.986 352.971 270.023C350.817 268.186 348.663 266.333 346.51 264.489C346.855 265.602 347.308 266.122 347.775 266.553C378.568 294.539 409.296 322.915 440.178 350.382C468.105 375.223 496.226 398.959 524.872 419.323C531.075 423.736 537.457 426.881 543.767 430.513C544.371 430.862 545.047 430.562 546 430.562C541.358 419.413 494.213 370.64 473.43 355.038H473.427ZM376.997 239.03C385.669 239.03 394.414 239.225 403.155 238.989C419.5 238.542 435.824 236.885 452.087 232.886C460.238 230.879 468.371 228.498 476.264 223.16C476.993 222.664 477.698 222.014 478.417 221.429C446.438 214.066 414.513 209.264 382.527 206.298C383.023 207.452 383.544 208.102 384.048 208.833C389.143 216.163 389.099 225.28 383.94 232.236C383.631 232.651 383.325 233.09 382.994 233.398C380.973 235.316 378.945 237.21 376.997 239.03ZM189.023 228.474C189.056 228.157 189.088 227.832 189.12 227.515C188.498 227.166 187.829 227.028 187.261 226.426C186.499 225.622 185.809 224.452 185.09 223.444C185.78 222.355 186.409 220.835 187.175 220.275C188.534 219.292 189.965 218.739 191.382 218.284C205.336 213.847 219.402 212.864 233.457 212.027C245.844 211.287 258.242 211.304 270.632 210.987C270.909 210.987 271.186 210.897 271.639 210.824C261.28 202.511 237.42 191.752 232.954 193.621C240.997 197.376 248.724 200.992 256.455 204.6C254.29 205.437 252.165 205.445 250.04 205.437C236.87 205.347 223.695 205.128 210.525 205.209C200.468 205.266 190.411 205.615 180.354 205.997C160.122 206.761 139.915 208.655 119.783 213.506C115.551 214.522 111.348 216.122 107.13 217.455C107.137 217.975 107.145 218.503 107.148 219.023C134.439 222.176 161.729 225.329 189.02 228.482L189.023 228.474ZM362.586 195.474C362.6 195.637 362.618 195.807 362.632 195.97C365.466 196.929 368.328 197.595 371.125 198.936C373.984 200.301 376.777 202.341 379.607 204.039C380.064 204.315 380.549 204.405 381.024 204.461C385.324 204.982 389.632 205.315 393.928 205.997C422.333 210.483 450.739 215.042 479.14 219.592C480.506 219.812 482.495 217.26 482.7 214.7C482.98 211.19 481.664 210.223 480.686 208.785C480.438 208.419 480.168 208.061 479.884 207.883C476.26 205.656 472.679 202.836 468.993 201.374C453.507 195.238 437.827 193.849 422.154 193.386C408.451 192.979 394.741 193.581 381.035 193.987C374.883 194.166 368.73 194.962 362.582 195.474H362.586ZM401.321 4.63285C401.091 4.10466 400.857 3.56833 400.627 3.04014C385.824 26.939 372.797 55.5753 359.849 84.2523C346.841 113.059 334.317 142.971 321.582 172.396C321.7 172.672 321.819 172.94 321.938 173.217C325.857 165.96 329.826 158.858 333.681 151.422C343.144 133.171 353.935 118.634 362.593 98.091C374.077 70.8605 385.723 43.9794 397.24 16.822C398.79 13.1652 399.972 8.71215 401.328 4.63285H401.321ZM238.056 26.3539C238.405 39.6725 262.74 126.654 272.11 149.383C273.189 146.238 274.512 146.978 275.759 148.603C276.842 150.009 277.902 151.618 278.826 153.503C281.43 158.809 283.957 164.302 286.517 169.722C286.158 168.967 285.928 167.797 285.611 166.756C277.395 139.827 269.42 112.499 260.867 86.1375C254.97 67.9676 248.296 51.0897 241.903 33.7649C240.943 31.1645 239.599 29.2793 238.06 26.3539H238.056ZM237.013 192.329C237.028 192.142 237.039 191.947 237.053 191.76C236.427 191.395 235.805 191.005 235.18 190.671C224.519 185.073 213.84 179.661 203.201 173.85C162.34 151.528 121.491 129.059 80.6307 106.737C79.268 105.99 77.8118 106.152 76.3987 105.892L76.3196 107.095C77.125 107.915 77.8981 108.964 78.7358 109.524C89.7383 116.862 100.647 125.135 111.786 131.229C141.022 147.229 170.341 162.417 199.663 177.597C208.925 182.391 218.277 186.3 227.618 190.233C230.7 191.533 233.882 191.655 237.013 192.321V192.329ZM254.549 267.699C253.963 268.211 253.377 268.714 252.791 269.234C236.524 283.569 220.283 298.041 203.981 312.156C198.861 316.593 193.356 318.999 188.405 324.175C173.483 339.785 158.741 356.265 143.949 372.493C142.417 374.175 141.011 376.426 139.109 379.01C146.437 377.929 246.064 281.862 254.553 267.699H254.549ZM87.4012 108.419C87.3616 108.866 87.3185 109.321 87.2789 109.768C128.204 132.058 169.129 154.356 210.054 176.646C210.09 176.305 210.126 175.963 210.162 175.614C203.434 170.876 196.682 166.318 189.99 161.328C185.453 157.94 181.127 152.706 176.5 150.415C149.457 137.015 122.354 124.224 95.2647 111.304C92.6687 110.069 90.0224 109.37 87.3976 108.419H87.4012ZM155.548 138.063C155.57 137.844 155.595 137.624 155.617 137.397C155.12 137.047 154.631 136.625 154.128 136.357C130.782 123.94 107.465 111.271 84.0825 99.2368C70.9586 92.484 57.734 86.7713 44.549 80.6361C43.7364 80.2542 42.8879 80.2623 42.0573 80.0836C42.6793 81.3919 43.2834 82.0257 43.9126 82.4239C58.4711 91.6064 72.8786 101.788 87.8722 107.55C107.385 115.05 126.737 124.696 146.153 133.464C149.296 134.886 152.42 136.519 155.552 138.055L155.548 138.063ZM257.638 253.689L257.569 252.958C251.054 257.289 244.381 260.694 238.06 266.179C229.312 273.761 220.751 282.513 212.261 291.5C205.401 298.765 198.76 307.086 192.04 315.033C191.364 315.838 190.825 317.252 190.224 318.381C190.35 318.869 190.476 319.356 190.602 319.852C212.948 297.798 235.291 275.752 257.638 253.697V253.689ZM332.135 165.367L332.268 165.887C339.955 154.218 347.88 143.24 355.254 130.628C360.414 121.803 364.844 110.776 369.557 100.643C370.061 99.5618 370.302 97.8553 370.665 96.4414C370.539 96.1245 370.417 95.8075 370.291 95.4906C368.81 97.059 367.271 98.416 365.854 100.244C360.216 107.477 354.988 115.879 350.346 126.264C344.399 139.575 338.215 152.357 332.135 165.367ZM466.509 346.652C459.357 336.055 381.617 268.909 377.094 269.104C406.685 294.767 436.421 320.559 466.509 346.652ZM368.86 241.858C368.856 241.395 368.849 240.939 368.845 240.476C359.303 239.924 349.757 239.363 339.955 238.794C343.525 242.613 346.992 244.06 350.641 243.645C356.71 242.955 362.787 242.443 368.86 241.858ZM279.553 175.264C277.356 168.495 275.371 162.376 273.383 156.249C274.185 164.351 275.346 171.851 279.553 175.264Z" stroke="#5B0000" stroke-width="2" mask="url(#path-1-outside-1_584_1868)"/>
</svg>
